<?xml version="1.0" encoding="UTF-8"?>
<svg version="1.1" viewBox="0 0 2048 2048" width="1280" height="1280" xmlns="http://www.w3.org/2000/svg">
<path transform="translate(1009,3)" d="m0 0h30l36 3 36 6 28 7 30 10 26 11 26 13 22 13 19 13 16 12 13 11 20 18 13 13 7 8 9 10 15 20 10 14 12 19 12 22 12 25 11 28 8 27 6 25 5 30 2 21 1 18v218h160l12 3 11 6 10 9 7 11 4 11 1 8v157l202-1v-110l-16-8-13-7-14-10-13-12-7-7-10-13-10-16-8-17-6-19-4-23v-27l4-23 8-24 12-23 13-17 11-12 13-11 15-10 15-8 19-7 23-5 11-1h20l17 2 17 4 21 8 17 9 16 12 10 9 10 10 13 18 7 12 8 19 6 21 2-1v59l-2 2-4 15-6 17-11 21-11 15-9 10-8 8-14 11-19 11-16 7-1 1-1 166-2 12-7 14-9 10-10 6-10 4-11 2h-258v204h262l12 3 10 5 12 11 8 14 3 13 1 169 10 3 19 10 16 12 10 9 10 10 11 15 9 15 8 19 6 21v5h2v52h-2l-2 12-8 23-10 19-9 13-11 13-8 8-14 11-18 11-16 7-15 5-19 4-7 1h-31l-22-4-18-6-21-10-15-10-15-13-9-9-12-16-8-13-7-15-6-18-4-18-1-9v-25l3-20 6-20 7-16 8-15 12-16 2-3h2l2-4 9-9 14-11 18-11 18-8 1-3v-108h-203v258l-2 12-4 10-8 11-8 7-12 6-14 3h-361l-1 307 6-1h94l11-1 8-18 10-16 12-16h2l2-4 7-7 14-11 15-10 19-9 19-6 15-3 9-1h27l20 3 19 6 12 5 17 9 14 10 10 9 5 4 7 8 10 13 9 15 8 18 5 16 4 20v36l-4 21-7 21-11 21-7 10-11 14-11 11-13 10-13 8-16 8-15 6-6 2h-80l-27-11-16-9-14-10-13-12-10-11-10-14-10-18-5-12-166-1-14-3-12-6-10-9-7-11-4-10-1-5-1-25v-340l-203-1v362l-2 12-6 12-7 9-9 7-11 5-15 3h-165l-1 5-10 21-13 19-12 13-12 11-18 12-16 8-17 7-5 2h-81l-20-8-16-8-16-10-10-9-8-7-9-10-11-15-9-16-6-15-6-21-3-20v-22l4-24 5-17 7-16 8-15 13-17 11-12 13-11 15-10 15-8 19-7 17-4 15-2h26l20 3 20 6 15 7 13 7 14 10 10 8v2l4 2 2 4h2l9 11 12 18 9 19 1 5h111v-306h-363l-13-3-11-6-10-9-7-11-4-11-1-5v-262l-203 1v111l5 1 13 6 14 8 16 12 8 7v2h2l7 8 10 13 9 15 9 20 5 17 3 16 1 12v14l-2 19-4 17-6 17-8 17-11 16-9 11-14 14-18 13-21 11-21 7-25 5h-31l-18-3-20-6-18-8-15-9-13-10-12-11-8-9-11-15-7-12-8-19-6-21-2-6v-50l2-5 5-19 8-19 9-16 8-11 9-11 8-7 11-10 15-10 25-12 1-1 1-169 3-11 6-11 5-7h2v-2l10-7 11-5 6-1 263-1 1-203h-259l-11-2-12-5-11-9-8-11-5-12-1-6-1-169-23-11-18-12-14-12-7-7-11-14-9-14-8-16-7-21-4-15v-50h2l1-8 5-18 9-20 9-15 10-13 6-7h2l2-4 8-7 12-9 13-8 14-7 20-7 20-4 11-1h20l22 3 20 6 18 8 11 6 14 10 10 9 5 4 7 8 10 13 9 15 7 15 6 18 4 20 1 11v15l-2 19-4 17-6 17-8 16-8 13-10 13-16 16-18 13-21 11-9 4-1 111 203-1 1-160 4-13 5-9 9-10 5-4 12-6 8-2h161v-192l1-38 3-30 5-29 8-32 11-32 13-30 12-23 12-20 12-17 8-11 13-16 7-9h2l2-4 27-27 11-9 12-10 18-13 23-15 23-13 23-11 28-11 29-9 25-6 31-5zm-6 104-27 3-25 5-24 7-17 6-18 8-23 12-14 9-17 12-17 14-8 8-8 7-12 13-11 14-10 13-11 17-12 22-8 17-9 24-7 25-5 26-2 19-1 19v211h613v-225l-2-21-4-23-7-27-7-20-9-21-12-23-12-19-9-12-9-11-12-14-14-14-8-7-16-13-24-16-21-12-19-9-24-9-24-7-26-5-27-3zm-859 410-10 3-11 6-10 10-5 9-4 10-1 6v13l4 13 5 10 5 6 11 8 8 4 9 2h18l12-4 11-7 5-5 7-9 5-13 1-5v-14l-3-11-6-12-7-8-14-9-11-3zm1740 0-12 4-10 7-5 4-7 10-5 13-1 5v15l4 13 6 10 6 7 9 6 8 4 8 2h19l12-4 11-7 7-7 6-9 4-12 1-14-2-12-8-16-10-10-13-7-8-2zm-1371 204-1 44v672l91 1h819l113-1v-716zm-364 717-14 3-11 6-8 7-7 10-5 13-1 6v12l3 11 6 12 9 10 10 6 11 4 5 1h13l11-3 12-6 10-9 7-11 3-9 1-6v-13l-3-12-7-13-9-9-16-8-10-2zm1740 0-11 2-12 6-12 11-6 10-4 15v15l5 15 7 10 7 7 10 6 14 4h13l12-3 12-6 6-5v-2l3-1 7-11 4-12 1-7v-8l-3-13-6-12-8-9-11-7-11-4-7-1zm-1335 410-13 4-10 7-5 5-6 7-5 11-2 9v15l3 12 6 10 8 9 11 7 13 4h19l12-4 11-7 8-8 7-13 2-7v-21l-4-12-7-11-7-7-12-7-11-3zm922 0-13 4-11 7-7 7-7 12-3 10-1 13 2 13 8 15 10 10 16 8 6 1h18l10-3 11-6 7-6 6-8 4-8 3-12v-14l-3-12-6-11-7-8-11-7-10-4-4-1z"/>
<path transform="translate(1017,925)" d="m0 0h14l11 3 10 5 8 6 8 10 6 13 2 16v197l-1 16-4 12-6 10-6 7-10 7-14 5-7 1h-10l-13-3-11-6-9-8-8-12-4-11-1-7v-215l3-12 6-12 10-11 11-7 9-3z"/>
<path transform="translate(2047,1459)" d="m0 0 1 4z"/>
</svg>
