<svg xmlns="http://www.w3.org/2000/svg" id="Layer_1" x="0" y="0" version="1.1" viewBox="0 0 50 50" xml:space="preserve"><style>.st4{fill:none;stroke:#444;stroke-width:1.5806;stroke-linecap:round;stroke-linejoin:round;stroke-miterlimit:10}</style><path fill="#00dffc" d="M31.4 1.1L4.4 11l-.2 4.5.2 9.1 39.4-14.4.3-7.2V1.1z"/><path fill="#00c8e2" d="M44.5 18.8l.4 4.3L4.5 37.8v-8.7l.2-4.8L44.9 9.6l-.6 3.5z"/><path fill="none" stroke="#444" stroke-linecap="round" stroke-linejoin="round" stroke-miterlimit="10" stroke-width="2.5" d="M23.5 47.5H4.3V2.2h40.3v26.5"/><path fill="#444" stroke="#444" stroke-miterlimit="10" stroke-width=".448" d="M15.5 31.5c0-.2-.2-.4-.4-.4h-4.5c-.2 0-.4.2-.4.4V36c0 .2.2.4.4.4h4.5c.2 0 .4-.2.4-.4v-4.5zm-.8 4.1H11v-3.7h3.7v3.7zm11.1-3.7c.1 0 .3.2.3.4s-.1.4-.3.4h-8c-.1 0-.3-.2-.3-.4s.1-.4.3-.4h8zm-1.6 2.8c.1 0 .2.2.2.4s-.1.4-.2.4h-6.4c-.1 0-.2-.2-.2-.4s.1-.4.2-.4h6.4zm-.1.8h-6.3c-.1 0-.3-.2-.3-.4s.1-.4.3-.4h6.3c.1 0 .3.1.3.4 0 .2-.2.4-.3.4zm0 7.1h-6.3c-.1 0-.3-.2-.3-.4s.1-.4.3-.4h6.3c.1 0 .3.2.3.4 0 .3-.2.4-.3.4zm-8.6-4c0-.2-.2-.4-.4-.4h-4.5c-.2 0-.4.2-.4.4v4.5c0 .2.2.4.4.4h4.5c.2 0 .4-.2.4-.4v-4.5zm-.8 4.1H11V39h3.7v3.7zM25.8 39c.1 0 .3.2.3.4s-.1.4-.3.4h-8c-.1 0-.3-.2-.3-.4s.1-.4.3-.4h8zm9.9-26.6c0 .2-.2.4-.4.4s-.4-.2-.4-.4V7h-5.5c-.2 0-.4-.2-.4-.4s.2-.4.4-.4h5.9c.2 0 .4.2.4.4v5.8zM20.2 6.6c0 .2-.2.4-.4.4h-5.5v5.5c0 .2-.2.4-.4.4s-.4-.2-.4-.4V6.6c0-.2.2-.4.4-.4h5.9c.2 0 .4.2.4.4zm-.4 21.2h-5.9c-.2 0-.4-.2-.4-.4v-5.9c0-.2.2-.4.4-.4s.4.2.4.4V27h5.5c.2 0 .4.2.4.4 0 .3-.2.4-.4.4zm15.5 0h-5.9c-.2 0-.4-.2-.4-.4s.2-.4.4-.4h5.5v-5.5c0-.2.2-.4.4-.4s.4.2.4.4v5.9c0 .3-.2.4-.4.4zm-9.2-18h-2.3 0c-.2 0-.4.1-.4.3l-4.5 13.3h-1.2c-.2 0-.4.2-.4.4s.2.4.4.4h2.6c.2 0 .4-.2.4-.4s-.2-.4-.4-.4h-.5l1.8-5.3H26l1.8 5.3h-.5c-.2 0-.4.2-.4.4s.2.4.4.4h4.4c.2 0 .4-.2.4-.4s-.2-.4-.4-.4H31l-4.5-13.3c-.1-.2-.3-.3-.4-.3zm-4.5 7.4l2-5.9 2 5.9h-4zm7 6.2l-4.4-12.7h1.5l4.4 12.7h-1.5z"/><path d="M47.2 48.3l-5.5-5.5" class="st4"/><circle cx="37.4" cy="38.5" r="6.1" class="st4"/></svg>