<?xml version="1.0" encoding="UTF-8"?>
<svg version="1.1" viewBox="0 0 2048 2048" width="1280" height="1280" xmlns="http://www.w3.org/2000/svg">
<path transform="translate(630)" d="m0 0h831l11 6 10 9 15 15 7 8 15 16 24 26 15 16 11 12 12 13 14 15 3 3v2h2l7 8 15 16 11 12 29 31 11 12 12 13 14 15 3 3v2h2l7 8 15 16 11 12 14 15 3 3v2h2l7 8 15 16 11 12 14 15 12 13 15 16 11 12 14 15 10 12 5 10 1 4v1137l-3 23-6 21-7 15-8 15-8 11-13 15-10 9-13 10-20 11-19 7-14 4-22 3-19 1h-162v168l-3 31-5 19-6 16-11 20-9 12-12 14-9 8-13 10-18 10-16 7-24 7-9 2h-1109l1-2-23-6-13-5-19-10-11-8-14-12-8-8-9-11-10-15-8-16-5-13-5-19-2-17-1-15v-1412l3-29 5-19 6-16 10-19 6-9h2l2-4 9-11 9-9 10-8 13-9 19-10 21-7 15-3 21-2h174v-176l3-25 6-20 5-13 10-19 8-11 11-13 5-5 9-8 13-10 22-12 21-7 15-4zm1 1m19 70-15 2-15 5-12 7-13 11-8 10-7 12-5 15-2 15v176h34l1-203 5-10 7-4 23-1h168l25 1 7 3 5 6 1 3v9l-3 6-5 5-11 2-186 1-1 182 485 1 11 2 12 7 15 15 7 8 16 17 11 12 14 15 12 13 4 5h2l2 4 9 9 7 8 15 16 14 15 3 4h2l2 4 9 9 7 8 16 17 12 13 4 5h2l2 4 9 9 7 8 16 17 12 13 4 5h2l2 4 9 9 7 8 16 17 12 13 4 5h2l2 4 9 9 7 8 16 17 14 15 24 26 6 7h2l2 4 8 8 11 14 4 10 1 6 1 881h175l15-2 15-5 14-8 12-11 7-8 7-12 5-15 2-10 1-44v-956l-1-97-379-1-12-3-8-5-7-8-4-8-2-12-1-376zm808 24v318h291l3-2-7-8-14-15-13-14-7-8-7-7-7-8-7-7-14-16h-2l-2-4-16-17-28-30-12-13-11-12-30-32-13-14-7-8-7-7-7-8-8-8-7-8-7-7-7-8-11-12-15-16-14-15-7-7-6-7zm-944 300-194 1-15 3-12 5-10 6-11 9-8 9-8 14-4 10-3 14-1 11v1421l2 16 4 12 7 14 8 10 9 9 13 8 11 5 15 4 8 1 163 1h683l221-1 19-2 15-5 15-8 12-11 8-9 8-15 5-19 1-9v-1090l-376-1-12-2-10-5-5-4-6-10-2-5-1-6-1-42v-338l-5-1zm619 25v317h295l-6-8-9-9-7-8-8-8-7-8-15-16-9-10-5-6h-2l-2-4-10-10-1-2h-2l-2-4-9-9-7-8-14-15-11-12-16-17-14-15-7-8-16-17-15-16-14-15-9-10-5-6h-2l-2-4-10-10-1-2h-2l-2-4-9-9-7-8-12-13-14-15-8-9z"/>
<path transform="translate(300,430)" d="m0 0h207l9 2 6 5 3 6 1 7-3 8-5 6-6 2-193 1v427l-3 8-6 5-5 2h-8l-8-4-5-6-2-10v-439l2-9 5-7 5-3z"/>
<path transform="translate(1463)" d="m0 0 2 1z"/>
<path transform="translate(626)" d="m0 0 2 1z"/>
</svg>
