<?xml version="1.0" encoding="UTF-8"?>
<svg version="1.1" viewBox="0 0 2048 2048" width="1280" height="1280" xmlns="http://www.w3.org/2000/svg">
<path transform="translate(169)" d="m0 0h1390l30 7 18 6 25 12 15 10 13 10 13 12 12 13 13 18 10 18 8 18 7 23 4 24 1 16v449l-1 13-6 11-8 7-10 4-7 1v64l10 1 8 4 8 8 5 10 1 7v65l-1 10-5 10-7 7-8 4-11 2v64l10 1 8 4 8 8 5 10 1 6v67h102l12 2 12 5 10 7 8 7 7 10 6 12 2 8 1 11v129l-2 18-5 12-6 10-4 5h-2v2l-10 8-13 6-11 3-13 1h-127l-16-2-12-5-11-7-7-6-8-11-105-1v128h163l9 2 8 5 5 5 5 8 2 10v194h292l8 2 10 6 7 10 3 6v251l-6 29-9 27-8 16-8 14-8 11-9 11-4 5h-2l-2 4-12 11-13 10-13 8-21 11-25 9-21 5-11 2h-1383l-36-8-20-7-16-8-14-8-16-12-10-9-17-17-14-19-10-18-7-15-7-22-4-19-2-19v-178l4-10 7-8 9-5 11-3 1-82-16 6-26 7-25 4-9 1h-42l-23-3-18-4-21-6-24-10-16-8-17-10-19-14-15-13-17-17-9-11-11-15-10-16-12-23-6-14-8-25-6-28-2-11v-56l7-33 7-24 10-24 10-19 10-16 16-21 14-15 11-11 11-9 15-11 16-10 12-7 25-11 21-7 22-5 19-3 13-1h30l21 2 28 5 2 1v-392h-289l-11-2-9-6-7-8-4-7v-513l8-33 8-21 12-23 11-16 13-15 12-12 14-11 15-10 14-8 19-8 20-6z" fill="#F5F7FD"/>
<path transform="translate(1695,927)" d="m0 0 13 3 7 4 7 7 5 10 1 6v67h102l12 2 12 5 10 7 8 7 7 10 6 12 2 8 1 11v129l-2 18-5 12-6 10-4 5h-2v2l-10 8-13 6-11 3-13 1h-127l-16-2-12-5-11-7-7-6-8-11-105-1v128h163l9 2 8 5 5 5 5 8 2 10v194h292l8 2 10 6 7 10 3 6v251l-6 29-9 27-8 16-8 14-8 11-9 11-4 5h-2l-2 4-12 11-13 10-13 8-21 11-25 9-21 5-11 2h-1383l-36-8-20-7-16-8-14-8-16-12-10-9-17-17-14-19-10-18-7-15-7-22-4-19-2-19v-178l4-10 7-8 9-5 7-2h10l11 4 10 9 4 8 1 3 1 165 2 21 4 19 6 16 9 17 10 13 10 11 14 11 16 9 14 6 18 5 14 2h22l18-3 17-5 17-8 15-10 14-12 11-14 6-9 8-15 6-17 3-15 1-9 1-234 2-12 6-10 8-6 6-3 5-1h458l11 4 8 7 5 8 2 5 1 168h128l-1-63-16-3-12-5-11-7-12-12-6-10-4-11-2-16v-128l2-18 4-11 7-11 9-10 10-7 10-5 7-2 8-1h142l16 4 12 6 11 9 7 9 7 14 3 10 1 28v48l191-1 1-159h-132l-12-2-13-5-11-7-12-12-6-10-4-11-1-5-1-15v-120l1-16 3-12 6-12 9-11 8-7 16-8 8-2 9-1h100v-87l1-20 4-15 9-14 12-12 5-3 1-72 2-13 6-10 8-6 10-4z" fill="#033C58"/>
<path transform="translate(169)" d="m0 0h1390l30 7 18 6 25 12 15 10 13 10 13 12 12 13 13 18 10 18 8 18 7 23 4 24 1 16v449l-1 13-6 11-8 7-10 4-11 1-9-3-7-4-7-7-4-10-1-8v-260l-1-199-3-19-5-16-9-19-9-13-9-10-4-4v-2l-4-2-8-7-13-8-16-8-21-6-14-2-1212-1 3 5 7 8 10 15 12 23 7 19 5 19 3 21 1 945 1 4 17 11 17 13 15 13 12 12 9 11 12 16 11 18 10 19 5 11 443 1 14 2 15 5 17 9 11 9 8 8 10 14 7 15 4 14 1 7 1 45v64l-2 18-4 15-4 10-10 16-12 12-8 7-14 8-14 6-14 3-11 1h-138l-17-3-15-5-16-9-13-11-8-9-9-14-6-14-4-17-2-13-64-1h-137l-8 1-10 19-10 18-13 19-14 17-12 13-10 9-16 13-18 12-21 12-22 10-26 8-23 5-23 3h-42l-23-3-18-4-21-6-24-10-16-8-17-10-19-14-15-13-17-17-9-11-11-15-10-16-12-23-6-14-8-25-6-28-2-11v-56l7-33 7-24 10-24 10-19 10-16 16-21 14-15 11-11 11-9 15-11 16-10 12-7 25-11 21-7 22-5 19-3 13-1h30l21 2 28 5 2 1v-392h-289l-11-2-9-6-7-8-4-7v-513l8-33 8-21 12-23 11-16 13-15 12-12 14-11 15-10 14-8 19-8 20-6z" fill="#033C58"/>
<path transform="translate(705,1664)" d="m0 0h383l1 133 3 16 8 16 8 9 13 9 11 5 15 3h138l12-2 14-6 11-8 7-7 7-11 5-12 2-13 1-67 1-1 67-1 16-3 14-7 9-7 9-10 7-14 6-21 1-1h510v195l-2 21-6 21-11 23-9 12-9 10-8 8-17 12-16 8-18 6-16 3-15 1h-1195l-6-1v-2l5-4 14-21 9-16 8-19 6-21 4-26 1-18 1-191z" fill="#CCD3EA"/>
<path transform="translate(240,1152)" d="m0 0h31l27 4 26 8 18 8 11 6 14 9 9 7 11 9 14 14 13 17 7 11 10 19 10 26 5 9 4 5 10 6 5 1 468 1 11 4 8 6 6 10 2 9v102l-3 10-5 8-8 7-8 3-6 1h-33l-1-1-1-35-3-10-4-6-1-3-14-7-5-1h-11l-10 4-8 7-5 9-1 4-1 38-1 1h-34l-9-2-11-7-6-9-2-5-1-7-1-34-2-11-5-9-7-7-7-3-5-1h-278l-10 4-8 7-4 7-8 20-7 16-11 19-12 16-11 12-12 12-13 10-15 10-19 10-22 8-21 5-24 3h-24l-26-4-22-6-16-6-20-10-19-13-14-12-13-13-11-14-10-15-12-23-9-27-5-25-1-9v-29l4-26 5-19 8-22 9-17 12-18 8-9 7-8 12-12 17-13 18-11 16-8 16-6 19-5z" fill="#0274FE"/>
<path transform="translate(178,64)" d="m0 0h24l19 3 16 5 14 6 16 10 9 7 15 15 11 16 8 16 5 14 4 18 1 10v455l-1 1h-255v-460l3-19 6-18 8-16 8-12 9-11 9-9 16-12 15-8 19-7z" fill="#CCD3EA"/>
<path transform="translate(1982,1860)" d="m0 0h1v14l-4 18-6 16-10 19-11 14-13 13-17 12-16 8-18 6-16 3-15 1h-1195l-6-1v-2l5-4 14-21 9-16 8-19 2-3v2l1162-1 19-1 18-3 16-5 13-5 19-10 14-10 14-12 7-7 4-5z" fill="#95A0C2"/>
<path transform="translate(242,1216)" d="m0 0h28l20 4 19 7 15 8 11 8 10 9 10 10 11 16 8 15 6 18 3 14 1 9v22l-5 25-8 20-9 15-11 14-14 14-15 10-16 8-17 6-21 4h-25l-16-3-17-5-17-8-16-11-12-11-6-6v-2h-2l-9-13-8-14-6-15-4-16-2-12v-24l3-19 6-18 8-16 7-11 9-11 9-9 13-10 16-9 16-7 20-5z" fill="#033B57"/>
<path transform="translate(665,864)" d="m0 0h141l10 4 9 8 6 12 1 59v144l-2 8-7 11-9 7-10 3h-135l-9-2-9-6-6-7-3-6-2-18v-186l2-11 6-10 10-7z" fill="#0274FE"/>
<path transform="translate(1082,864)" d="m0 0h140l10 4 9 8 6 12 1 60v144l-3 9-7 10-8 6-10 3h-135l-8-2-8-4-7-7-4-8-2-18v-185l2-12 6-10 10-7z" fill="#0274FE"/>
<path transform="translate(1082,512)" d="m0 0h140l10 4 9 8 6 12 1 65v139l-3 9-7 10-10 7-7 2h-137l-9-3-7-4-5-5-5-9-2-18v-185l2-12 6-10 10-7z" fill="#0274FE"/>
<path transform="translate(505,512)" d="m0 0h141l10 4 9 8 6 12 1 58v146l-3 9-7 10-10 7-7 2h-137l-9-3-9-5-6-9-2-4-1-6-1-20v-177l2-12 6-10 10-7z" fill="#0274FE"/>
<path transform="translate(1081,160)" d="m0 0h141l10 4 9 8 6 12 1 61v143l-3 9-7 10-10 7-7 2h-137l-9-3-7-4-5-5-5-9-2-18v-188l2-9 6-10 10-7z" fill="#0274FE"/>
<path transform="translate(665,160)" d="m0 0h141l10 4 9 8 6 12 1 66v138l-3 9-6 9-9 7-9 3h-137l-9-3-7-4-5-5-5-9-2-18v-188l2-9 6-10 10-7z" fill="#0274FE"/>
<path transform="translate(178,64)" d="m0 0h24l19 3 16 5 14 6 16 10 9 7 15 15 11 16 8 16 5 14 4 18 1 10v455l-1 1h-243v-1l179-1v-453l-2-21-4-18-7-19-11-21-10-13-9-10v-2l-4-2-10-10-5-3h-12l-15 1v-1z" fill="#95A0C2"/>
<path transform="translate(1880,800)" d="m0 0h79l15 3 15 8 11 10 7 10 5 10 3 10 1 8v70l-2 16-5 12-7 11-5 6-10 8-13 6-11 3-12 1h-67l-13-2-15-6-9-7-7-6-9-13-5-12-2-11v-80l3-12 8-16 11-12 8-6 12-6z" fill="#033C58"/>
<path transform="translate(1880,1344)" d="m0 0h79l14 3 14 7 10 8 9 11 6 12 3 10 1 9v69l-2 16-5 12-6 10-6 7-10 8-13 6-11 3-12 1h-66l-14-2-13-5-10-7-8-7-9-13-5-12-2-11v-80l3-12 4-9 7-11 10-10 11-7 14-5z" fill="#033C58"/>
<path transform="translate(1507,159)" d="m0 0 33 1 10 3 6 4 7 8 4 9 1 10v194l-3 9-6 9-11 8-6 2h-11l-11-4-8-6-6-11-2-17v-98l-1-55-11-3-9-6-6-7-5-12v-9l3-10 6-9 11-7 6-2z" fill="#0274FE"/>
<path transform="translate(1508,863)" d="m0 0 32 1 10 3 8 6 6 8 3 7 1 10v193l-2 8-6 10-10 8-8 3h-11l-11-4-8-6-6-11-2-16v-106l-1-48-11-3-9-6-5-6-5-10-1-4v-8l3-10 6-9 11-7 7-2z" fill="#0274FE"/>
<path transform="translate(772,511)" d="m0 0 32 1 10 3 8 6 6 8 3 7 1 10v194l-3 9-7 10-10 7-6 2h-11l-11-4-8-6-6-11-2-18v-104l-1-48-11-3-10-7-5-6-4-9-1-4v-8l3-10 6-9 11-7 7-2z" fill="#0274FE"/>
<path transform="translate(1347,159)" d="m0 0 33 1 10 3 8 6 6 8 3 7 1 10v193l-2 8-7 11-11 8-6 2h-11l-11-4-8-6-6-11-2-18v-104l-1-48-11-3-10-7-5-6-4-9-1-4v-8l3-10 6-9 9-6 8-3z" fill="#0274FE"/>
<path transform="translate(1507,511)" d="m0 0 33 1 10 3 8 6 6 8 3 7 1 10v194l-3 9-6 9-11 8-6 2h-11l-11-4-8-6-6-11-2-17v-99l-1-54-11-3-10-7-4-5-5-10-1-4v-8l3-10 6-9 11-7 7-2z" fill="#0274FE"/>
<path transform="translate(1339,864)" d="m0 0h41l10 3 8 6 6 8 3 7 1 10v194l-3 9-7 10-10 7-6 2h-11l-11-4-8-6-6-11-2-18v-104l-1-48-11-3-10-7-5-6-4-9-1-4v-8l3-10 6-9 11-7z" fill="#0274FE"/>
<path transform="translate(1339,512)" d="m0 0h41l10 3 8 6 6 8 3 7 1 10v193l-2 8-7 11-11 8-6 2h-11l-11-4-8-6-6-11-2-18v-105l-1-47-11-3-10-7-5-6-4-9-1-4v-8l3-10 6-9 11-7z" fill="#0274FE"/>
<path transform="translate(515,863)" d="m0 0h13l20 1 10 3 8 6 6 8 3 7 1 10v193l-2 8-6 10-7 6-8 4-3 1h-11l-11-4-8-6-6-11-2-14-1-156-11-3-11-8-6-9-3-9v-8l3-10 6-9 9-6 8-3z" fill="#0274FE"/>
<path transform="translate(515,159)" d="m0 0h13l20 1 10 3 8 6 6 8 3 7 1 10v193l-2 8-6 10-10 8-8 3h-11l-11-4-8-6-6-11-2-17-1-153-11-3-10-7-5-6-4-9-1-4v-8l3-10 6-9 9-6 8-3z" fill="#0274FE"/>
<path transform="translate(931,159)" d="m0 0h12l21 1 10 3 8 6 6 8 3 7 1 10v193l-2 8-6 10-10 8-8 3h-11l-11-4-8-6-6-11-2-17v-96l-1-57-11-3-10-7-5-6-5-12v-9l3-10 6-9 9-6 8-3z" fill="#0274FE"/>
<path transform="translate(923,864)" d="m0 0h41l10 3 8 6 6 8 3 7 1 10v193l-2 8-6 10-10 8-8 3h-11l-11-4-8-6-6-11-2-17v-96l-1-57-11-3-10-7-5-6-4-9-1-4v-8l3-10 6-9 11-7z" fill="#0274FE"/>
<path transform="translate(923,512)" d="m0 0h41l10 3 8 6 6 8 3 7 1 10v193l-2 8-6 10-10 8-8 3h-11l-11-4-7-5-6-10-2-7-1-12v-101l-1-52-11-3-10-7-5-6-4-9-1-4v-8l3-10 6-9 11-7z" fill="#0274FE"/>
<path transform="translate(1697,1088)" d="m0 0h126l1 1v127h-128v-127z" fill="#0274FE"/>
<path transform="translate(1281,1536)" d="m0 0h126l1 1v126l-1 1h-127v-127z" fill="#0274FE"/>
<path transform="translate(247,1280)" d="m0 0h18l15 4 11 6 9 7 9 10 8 16 3 13v16l-4 16-8 14-11 12-11 7-12 5-9 2h-17l-16-4-13-7-10-9-6-7-8-16-3-12v-18l4-15 7-13 9-10 8-7 14-7z" fill="#F4F6FC"/>
<path transform="translate(544,576)" d="m0 0h64v127l-1 1h-63l-1-2v-122z" fill="#F3F6FC"/>
<path transform="translate(1120,928)" d="m0 0h64v127l-1 1h-63l-1-2v-122z" fill="#F3F6FC"/>
<path transform="translate(704,928)" d="m0 0h64v127l-1 1h-63l-1-2v-122z" fill="#F3F6FC"/>
<path transform="translate(1120,576)" d="m0 0h64v127l-1 1h-63l-1-2v-122z" fill="#F3F6FC"/>
<path transform="translate(1120,224)" d="m0 0h64v127l-1 1h-63l-1-2v-122z" fill="#F3F6FC"/>
<path transform="translate(704,224)" d="m0 0h64v127l-1 1h-63l-1-2v-122z" fill="#F3F6FC"/>
<path transform="translate(27,992)" d="m0 0h73l8 2 8 5 5 5 5 8 2 7v10l-3 9-4 6-7 7-11 4-9 1h-64l-12-3-10-7-6-10-2-3v-18l7-12 7-6 8-4z" fill="#95A0C2"/>
<path transform="translate(26,864)" d="m0 0h74l10 3 6 4 5 5 5 8 2 8v8l-3 10-6 8-7 6-8 3-10 1h-64l-12-3-10-7-6-10-2-3v-18l7-12 9-7z" fill="#95A0C2"/>
<path transform="translate(1695,735)" d="m0 0 13 3 7 4 7 7 5 10 1 7v65l-1 10-5 10-7 7-8 4-9 2h-7l-11-4-10-9-4-8-2-9v-64l2-14 6-10 8-6 10-4z" fill="#033C58"/>
<path transform="translate(1889,1408)" d="m0 0h62l1 1v63h-64v-63z" fill="#0274FE"/>
<path transform="translate(1889,864)" d="m0 0h62l1 1v62l-1 1h-63v-63z" fill="#0274FE"/>
<path transform="translate(748,1985)" d="m0 0h1112v1l-74 1-44 1-20 1-37 1h-259l-141-1h-442l-44-1-51-2z" fill="#043250"/>
<path transform="translate(667,1600)" d="m0 0h458l5 2v1l-20 1-9 2-10 1-31 1h-333l-60-3-4-1 1-3z" fill="#033351"/>
<path transform="translate(1667,1446)" d="m0 0 2 3 1 2v7l1 5 1 22v56l1 40v10l-3 6v2h-2l-1 4-16 4-11 1-12 1h-51l-47-1-33-1-17-2-8-3v-1l175-1 18-1v-149z" fill="#033250"/>
<path transform="translate(497,1249)" d="m0 0h438v1l-32 3-61 1-32 1h-103l-37-1-102-1-32-2h-25l-14-1z" fill="#043250"/>
<path transform="translate(61,202)" d="m0 0h2v438h-1v-5l-2-1-1-17-1-83v-107l1-197v-22z" fill="#043250"/>
<path transform="translate(1667,261)" d="m0 0h3l1 37v132l-1 121h-1v24h1v5 1l-2 1 1 9-1 15-2-4-1-175v-74l1-85z" fill="#033250"/>
<path transform="translate(642,1674)" d="m0 0 2 3 1 2 2 30 1 12v137l-2 18-2 7-4 10h-2l-2 9-3 5-3 2 1-7 5-17 3-19 1-2 1-175z" fill="#033250"/>
<path transform="translate(63,640)" d="m0 0 256 1v1l-20 2h-14l-18 1-20 1-19 2h-32l-95-1h-22l-13-2-3-2z" fill="#043250"/>
<path transform="translate(321,279)" d="m0 0h1l1 9 1 24 1 222v70l1 18v10l-3 8h-2z" fill="#043250"/>
<path transform="translate(701,1672)" d="m0 0h1l1 16v186l-2 15-3 4v-8l1-1v-12l-1-16v-71l-1-85v-12l2-13z" fill="#033250"/>
<path transform="translate(1273,1472)" d="m0 0h142l10 2 1 2h-22l-19 3h-72l-17-1h-24l-6-2-6 2-5 1 1-3 9-3z" fill="#033351"/>
<path transform="translate(1985,1671)" d="m0 0h3l2 7 1 24v64l-2 44-2 30-1 13h-1z" fill="#043250"/>
<path transform="translate(1278,1792)" d="m0 0 2 1-1 1-9 2-7 2-17 2h-63l-22-2-9-4v-1z" fill="#043250"/>
<path transform="translate(729,1377)" d="m0 0h11l10 3 6 3 7 8 3 6v13l-2-4-3-9-2-5-10-7-3-3-6-2h-20l-9 1-81 1-71-1-25-2v-1z" fill="#043250"/>
<path transform="translate(502,1439)" d="m0 0h137l64 1v1l-65 1-144 1-2 1 2-4z" fill="#B3BCD8"/>
<path transform="translate(1697,1217)" d="m0 0h126v2l-7 2-12 1-85-1-21-1z" fill="#043250"/>
<path transform="translate(1523,1185)" d="m0 0h108v1l-23 3-23 1-39-1-22-1-2-2z" fill="#033250"/>
<path transform="translate(1089,1674)" d="m0 0 3 3 1 22v28l-1 7 1 11-1 7v17l-1 7-1 22h-1z" fill="#043250"/>
<path transform="translate(1409,1545)" d="m0 0h2l1 3v104l-2 4-1-3z" fill="#043250"/>
<path transform="translate(1938,1659)" d="m0 0h22l10 2 14 1v2l-74-1v-1z" fill="#043250"/>
<path transform="translate(1825,1097)" d="m0 0h2l1 29v61l1 7-1 11-2 3z" fill="#043250"/>
<path transform="translate(1282,1745)" d="m0 0 1 4 2 1 1 16 1 6v8l-2 5h-4v-39z" fill="#033250"/>
<path transform="translate(857,1408)" d="m0 0h11l10 3 6 4 5 5 3 4 2 11-3-4-4-8-1-3-4-2-12-5-13-3z" fill="#033452"/>
<path transform="translate(742,1378)" d="m0 0 6 1 8 4 7 8 3 6v13l-2-4-3-9-2-5-10-7-3-3-4-2z" fill="#033351"/>
<path transform="translate(1953,873)" d="m0 0 2 1 1 4v37l-1 5-2-4z" fill="#043250"/>
<path transform="translate(1953,1417)" d="m0 0 2 1 1 9v32l-1 5-2-3z" fill="#043250"/>
<path transform="translate(1634,1151)" d="m0 0 2 1 3 19-2 6h-4v-25z" fill="#043250"/>
<path transform="translate(1332,1824)" d="m0 0h2l-2 5-9 10-9 7-12 6h-3v-2l13-6 4-1v-2l4-1v-3l5-5 3-4h2v-2h2z" fill="#033452"/>
<path transform="translate(1218,1605)" d="m0 0h1l1 8h1v17l-1 16-2 1z" fill="#043250"/>
<path transform="translate(1456,1701)" d="m0 0h2l-1 4-9 9-8 5-3-1 5-3h2v-2l4-1v-3l4-1 1-4z" fill="#033552"/>
<path transform="translate(1395,1665)" d="m0 0h5l1 2-2 1h-20l-3-2h11z" fill="#043250"/>
<path transform="translate(1096,1821)" d="m0 0 4 4 6 8 5 5 3 4-4-2-7-6-7-10z" fill="#033552"/>
<path transform="translate(1890,1473)" d="m0 0 34 1v1l-33 1-2-2z" fill="#043250"/>
<path transform="translate(1936,1473)" d="m0 0h15l-1 2-4 1h-11l-2-2z" fill="#043250"/>
<path transform="translate(1938,929)" d="m0 0h13l-1 2-8 1h-6l-2-2z" fill="#043250"/>
<path transform="translate(700,1875)" d="m0 0h2v8l-2 7-2 3v-8l1-1z" fill="#033552"/>
<path transform="translate(1665,1016)" d="m0 0 3 1v10l-3 4z" fill="#043250"/>
</svg>
