<?xml version="1.0" standalone="no"?>
<!DOCTYPE svg PUBLIC "-//W3C//DTD SVG 20010904//EN"
 "http://www.w3.org/TR/2001/REC-SVG-20010904/DTD/svg10.dtd">
<svg version="1.0" xmlns="http://www.w3.org/2000/svg"
 width="544.000000pt" height="117.000000pt" viewBox="0 0 544.000000 117.000000"
 preserveAspectRatio="xMidYMid meet">

<g transform="translate(0.000000,117.000000) scale(0.100000,-0.100000)"
fill="#000000" stroke="none">
<path d="M638 993 c7 -3 16 -2 19 1 4 3 -2 6 -13 5 -11 0 -14 -3 -6 -6z"/>
<path d="M389 946 c-8 -9 3 -86 12 -86 5 0 9 20 9 45 0 40 -7 54 -21 41z"/>
<path d="M440 906 c0 -46 0 -46 36 -46 l35 0 -3 43 c-3 39 -5 42 -35 45 -33 3
-33 3 -33 -42z m50 -1 c0 -16 -6 -25 -15 -25 -9 0 -15 9 -15 25 0 16 6 25 15
25 9 0 15 -9 15 -25z"/>
<path d="M547 908 c8 -59 13 -61 13 -5 0 26 -4 47 -9 47 -5 0 -7 -19 -4 -42z"/>
<path d="M595 928 c-10 -44 0 -63 33 -66 32 -3 32 -3 32 42 0 44 -1 46 -30 46
-23 0 -31 -5 -35 -22z m45 -23 c0 -16 -6 -25 -15 -25 -9 0 -15 9 -15 25 0 16
6 25 15 25 9 0 15 -9 15 -25z"/>
<path d="M694 934 c3 -9 6 -29 6 -45 0 -16 5 -29 10 -29 6 0 10 20 10 45 0 35
-4 45 -16 45 -11 0 -14 -5 -10 -16z"/>
<path d="M754 934 c3 -9 6 -29 6 -45 0 -16 5 -29 10 -29 6 0 10 20 10 45 0 35
-4 45 -16 45 -11 0 -14 -5 -10 -16z"/>
<path d="M380 776 c0 -46 0 -46 36 -46 l35 0 -3 43 c-3 39 -5 42 -35 45 -33 3
-33 3 -33 -42z m50 -1 c0 -16 -6 -25 -15 -25 -9 0 -15 9 -15 25 0 16 6 25 15
25 9 0 15 -9 15 -25z"/>
<path d="M483 806 c4 -10 7 -31 7 -47 0 -16 5 -29 11 -29 16 0 7 83 -10 88
-10 3 -12 0 -8 -12z"/>
<path d="M547 778 c8 -59 13 -61 13 -5 0 26 -4 47 -9 47 -5 0 -7 -19 -4 -42z"/>
<path d="M599 818 c-1 -2 -3 -22 -4 -45 -4 -43 -4 -43 31 -43 34 0 34 0 34 45
0 43 -1 45 -30 45 -16 0 -30 -1 -31 -2z m41 -43 c0 -16 -6 -25 -15 -25 -9 0
-15 9 -15 25 0 16 6 25 15 25 9 0 15 -9 15 -25z"/>
<path d="M693 806 c4 -10 7 -31 7 -47 0 -16 5 -29 11 -29 16 0 7 83 -10 88
-10 3 -12 0 -8 -12z"/>
<path d="M753 806 c4 -10 7 -31 7 -47 0 -16 5 -29 11 -29 16 0 7 83 -10 88
-10 3 -12 0 -8 -12z"/>
<path d="M389 685 c-8 -8 3 -85 12 -85 12 0 12 77 0 84 -4 3 -10 4 -12 1z"/>
<path d="M447 684 c-4 -4 -7 -25 -7 -46 0 -37 1 -38 36 -38 l35 0 -3 43 c-3
37 -6 42 -28 45 -14 2 -29 0 -33 -4z m41 -39 c-4 -33 -22 -33 -26 0 -2 18 1
25 13 25 12 0 15 -7 13 -25z"/>
<path d="M547 648 c8 -59 13 -61 13 -5 0 26 -4 47 -9 47 -5 0 -7 -19 -4 -42z"/>
<path d="M597 683 c-2 -5 -3 -24 -3 -43 1 -32 4 -35 34 -38 32 -3 32 -3 32 42
0 44 -1 46 -29 46 -17 0 -32 -3 -34 -7z m43 -37 c0 -13 -7 -26 -15 -30 -11 -4
-15 2 -15 24 0 20 5 30 15 30 9 0 15 -9 15 -24z"/>
<path d="M693 676 c4 -10 7 -31 7 -47 0 -16 5 -29 11 -29 16 0 7 83 -10 88
-10 3 -12 0 -8 -12z"/>
<path d="M753 676 c4 -10 7 -31 7 -47 0 -16 5 -29 11 -29 16 0 7 83 -10 88
-10 3 -12 0 -8 -12z"/>
<path d="M806 595 c-3 -13 -14 -25 -24 -28 -16 -4 -16 -4 2 -12 11 -5 21 -3
25 4 5 7 18 10 33 6 19 -5 27 -2 32 11 4 9 5 17 4 18 -2 1 -17 6 -35 13 -29
10 -32 9 -37 -12z"/>
<path d="M265 570 c-3 -5 -14 -10 -25 -10 -20 0 -34 -26 -19 -36 6 -3 9 -14 6
-23 -4 -17 14 -41 32 -41 5 0 11 -4 13 -8 2 -5 20 -12 40 -15 32 -5 41 -2 57
19 24 31 80 33 99 4 9 -14 23 -20 50 -20 47 0 62 14 62 57 0 43 -21 53 -117
53 -46 0 -84 5 -90 11 -15 15 -100 22 -108 9z m53 -59 c-2 -9 -11 -17 -21 -19
-21 -4 -35 27 -17 38 19 12 42 0 38 -19z"/>
<path d="M906 485 c-9 -26 -7 -32 5 -12 6 10 9 21 6 23 -2 3 -7 -2 -11 -11z"/>
<path d="M680 426 c0 -8 -8 -17 -17 -19 -10 -3 -1 -5 21 -6 31 -1 37 2 32 15
-3 9 -6 18 -6 20 0 2 -7 4 -15 4 -8 0 -15 -6 -15 -14z"/>
<path d="M810 270 c0 -5 10 -10 23 -10 18 0 19 2 7 10 -19 13 -30 13 -30 0z"/>
</g>
</svg>
