<svg xmlns="http://www.w3.org/2000/svg" id="Layer_1" x="0" y="0" version="1.1" viewBox="0 0 50 50" xml:space="preserve"><style>.st1{fill:#444}</style><path fill="#00dffc" d="M42.8 12L27.1 3c-1.4-.8-3.1-.8-4.4 0l-3.1 1.8L7 11c-1.5.8-2.4 2.2-2.5 3.8L4.3 18l.5-.1v15.9c0 1.6.8 3.1 2.2 3.9l5.5 3.2L45 29.1V15.8c0-1.6-.8-3.1-2.2-3.8z"/><path d="M43.3 11L27.6 2c-1.7-1-3.8-1-5.4 0L6.5 11c-1.7 1-2.7 2.8-2.7 4.7v18.1c0 1.9 1 3.7 2.7 4.7l15.7 9c.8.5 1.8.7 2.7.7s1.9-.2 2.7-.7l4.3-2.5c.5-.3.6-.9.4-1.4-.3-.5-.9-.6-1.4-.4l-4.3 2.5c-1.1.6-2.4.6-3.4 0L7.5 36.8c-1.1-.6-1.7-1.7-1.7-3v-18c0-1.2.7-2.4 1.7-3l15.7-9c1.1-.6 2.4-.6 3.4 0l15.7 9c1.1.6 1.7 1.7 1.7 3v13.3c0 .6.5 1 1 1s1-.5 1-1V15.8c0-2-1-3.8-2.7-4.8z" class="st1"/><path d="M38.9 15.4L26 8c-.7-.4-1.6-.4-2.3 0l-12.8 7.4c-.7.4-1.1 1.2-1.1 2v14.9c0 .8.4 1.6 1.1 2l12.9 7.4c.4.2.7.3 1.1.3s.8-.1 1.1-.3l12.9-7.5c.7-.4 1.1-1.2 1.1-2V17.4c.1-.8-.4-1.6-1.1-2zm.3 16.8c0 .5-.3 1-.7 1.3l-12.9 7.4c-.5.3-1 .3-1.5 0l-12.9-7.4c-.5-.3-.7-.8-.7-1.3V17.4c0-.5.3-1 .7-1.3l6.6-3.8 1.4 1.4c-.4 1-.2 2.2.6 3 .3.3.6.5.9.6v9.9c-.6.2-1 .6-1.4 1.2-.5.9-.5 2 .1 2.9 1.1 1.7 3.7 1.7 4.8-.2.4-.7.5-1.5.2-2.2-.3-.8-.8-1.3-1.4-1.6V18c0-.2.2-.3.4-.1l3.4 3.4c-.5 1.2-.1 2.6 1.1 3.4.9.6 2 .6 2.9 0 1.6-1 1.7-3.1.5-4.3-.8-.8-1.9-1-2.9-.7l-4-4c.3-1 .1-2.1-.7-2.9-.8-.8-1.9-1-2.9-.7l-1-1L24 8.7c.2-.1.5-.2.7-.2s.5.1.7.2l12.9 7.4c.5.3.7.8.7 1.3l.2 14.8z" class="st1"/></svg>