<?xml version="1.0" encoding="utf-8"?>
<!-- Generator: Adobe Illustrator 27.7.0, SVG Export Plug-In . SVG Version: 6.00 Build 0)  -->
<svg version="1.1" id="Layer_1" xmlns="http://www.w3.org/2000/svg" xmlns:xlink="http://www.w3.org/1999/xlink" x="0px" y="0px"
	 viewBox="0 0 50 50" style="enable-background:new 0 0 50 50;" xml:space="preserve">
<style type="text/css">
	.st0{fill:none;stroke:#444444;stroke-linecap:round;stroke-linejoin:round;stroke-miterlimit:10;}
	.st1{fill:#FC9D9A;}
	.st2{fill:none;stroke:#444444;stroke-width:0.5;stroke-linecap:round;stroke-linejoin:round;stroke-miterlimit:10;}
	.st3{fill:none;stroke:#444444;stroke-width:2.5;stroke-linecap:round;stroke-linejoin:round;stroke-miterlimit:10;}
</style>
<g>
	<path class="st0" d="M-21.4,38.3"/>
</g>
<path class="st0" d="M-20.8,41.4"/>
<g>
	<g>
		<path class="st1" d="M45.5,11.9c-0.2-1.1-4.4-0.4-7.7,0c-0.1,0-1.9-3.8-4-5.9c-4.2-4.3-13.4-3.1-14.4-2.3l-6.7,7.8
			c-1.5,0-10.1-2.4-8.3,5.1l-2.3,0.7c-0.1,0.2,0,4.8,0,5L1.5,32.5l1.3,12.3l12.9,0.6l33.5-11.9V18.3v-0.2l0,0c0-1.3-1.5-1.9-2.9-2
			C46.2,16,45.7,12.9,45.5,11.9z"/>
		<path class="st0" d="M25.4,42L6.9,40.2c-1.1-0.1-1.9-1-1.9-2.1V14.3c0-1.2,1.1-2.2,2.3-2.1l10.9,1.1"/>
		<line class="st2" x1="25.4" y1="28" x2="25.4" y2="41.5"/>
		<path class="st0" d="M25.4,42l18.4-1.9c1.1-0.1,1.9-1,1.9-2.1V14.3c0-1.2-1.1-2.2-2.3-2.1L33,13.3"/>
		<path class="st3" d="M48.7,37.2V19.3c0-1.6-0.7-2.9-2.3-2.9v-2.5c0-1.6-1.4-2.9-3-2.7l-5.3,0.7l0,0c-1.6-5.2-6.9-9.4-12.7-9.4
			S14.3,6.8,12.8,12l0,0l-5.6-0.5C5.5,11.3,4,12.7,4,14.4v1.8c-1.6,0-2.3,1.6-2.3,3.1V42c0,1.6,1.3,2.9,2.9,2.9h34"/>
		<g>
			<path class="st2" d="M13.5,30.7L13.5,30.7c-0.7,0-1.3-0.6-1.3-1.3v-1c0-0.7,0.6-1.3,1.3-1.3l0,0c0.7,0,1.3,0.6,1.3,1.3v1
				C14.8,30.1,14.2,30.7,13.5,30.7z"/>
			<path class="st2" d="M20.5,30.7L20.5,30.7c-0.7,0-1.3-0.6-1.3-1.3v-1c0-0.7,0.6-1.3,1.3-1.3l0,0c0.7,0,1.3,0.6,1.3,1.3v1
				C21.8,30.1,21.2,30.7,20.5,30.7z"/>
			<line class="st2" x1="16.3" y1="27.1" x2="16.3" y2="30.6"/>
			<path class="st2" d="M10.4,35.7L10.4,35.7c-0.7,0-1.3-0.6-1.3-1.3v-1c0-0.7,0.6-1.3,1.3-1.3l0,0c0.7,0,1.3,0.6,1.3,1.3v1
				C11.7,35.2,11.1,35.7,10.4,35.7z"/>
			<path class="st2" d="M16,35.7L16,35.7c-0.7,0-1.3-0.6-1.3-1.3v-1c0-0.7,0.6-1.3,1.3-1.3l0,0c0.7,0,1.3,0.6,1.3,1.3v1
				C17.3,35.2,16.7,35.7,16,35.7z"/>
			<path class="st2" d="M20,35.7L20,35.7c-0.7,0-1.3-0.6-1.3-1.3v-1c0-0.7,0.6-1.3,1.3-1.3l0,0c0.7,0,1.3,0.6,1.3,1.3v1
				C21.3,35.2,20.7,35.7,20,35.7z"/>
			<line class="st2" x1="13.2" y1="32.2" x2="13.2" y2="35.7"/>
			<line class="st2" x1="10.6" y1="27.1" x2="10.6" y2="30.6"/>
			<line class="st2" x1="9.1" y1="27.1" x2="9.1" y2="30.6"/>
			<line class="st2" x1="17.6" y1="27.1" x2="17.6" y2="30.6"/>
		</g>
		<g>
			<path class="st2" d="M37.3,30.7L37.3,30.7c0.7,0,1.3-0.6,1.3-1.3v-1c0-0.7-0.6-1.3-1.3-1.3l0,0c-0.7,0-1.3,0.6-1.3,1.3v1
				C36,30.1,36.6,30.7,37.3,30.7z"/>
			<path class="st2" d="M30.2,30.7L30.2,30.7c0.7,0,1.3-0.6,1.3-1.3v-1c0-0.7-0.6-1.3-1.3-1.3l0,0c-0.7,0-1.3,0.6-1.3,1.3v1
				C29,30.1,29.5,30.7,30.2,30.7z"/>
			<line class="st2" x1="34.4" y1="27.1" x2="34.4" y2="30.6"/>
			<path class="st2" d="M40.4,35.7L40.4,35.7c0.7,0,1.3-0.6,1.3-1.3v-1c0-0.7-0.6-1.3-1.3-1.3l0,0c-0.7,0-1.3,0.6-1.3,1.3v1
				C39.1,35.2,39.7,35.7,40.4,35.7z"/>
			<path class="st2" d="M34.8,35.7L34.8,35.7c0.7,0,1.3-0.6,1.3-1.3v-1c0-0.7-0.6-1.3-1.3-1.3l0,0c-0.7,0-1.3,0.6-1.3,1.3v1
				C33.5,35.2,34.1,35.7,34.8,35.7z"/>
			<path class="st2" d="M30.7,35.7L30.7,35.7c0.7,0,1.3-0.6,1.3-1.3v-1c0-0.7-0.6-1.3-1.3-1.3l0,0c-0.7,0-1.3,0.6-1.3,1.3v1
				C29.4,35.2,30,35.7,30.7,35.7z"/>
			<line class="st2" x1="37.6" y1="32.2" x2="37.6" y2="35.7"/>
			<line class="st2" x1="40.2" y1="27.1" x2="40.2" y2="30.6"/>
			<line class="st2" x1="41.7" y1="27.1" x2="41.7" y2="30.6"/>
			<line class="st2" x1="33.1" y1="27.1" x2="33.1" y2="30.6"/>
		</g>
	</g>
	<g>
		<circle class="st0" cx="25.6" cy="15.2" r="4.4"/>
		<path class="st0" d="M35.5,16.6v-2.7l-2.9-0.2c-0.2-0.8-0.5-1.6-0.9-2.3l1.9-2.2l-1.9-1.9l-2.2,1.9c-0.7-0.5-1.5-0.9-2.3-1L27,5.3
			h-2.7l-0.2,2.9c-0.9,0.1-1.6,0.5-2.3,0.9l-2.2-1.9l-1.9,1.9l1.9,2.2c-0.4,0.7-0.8,1.5-0.9,2.3l-2.9,0.2v2.7l2.9,0.2
			c0.2,0.8,0.5,1.6,0.9,2.3l-1.9,2.2l1.9,1.9l2.2-1.9c0.7,0.4,1.5,0.8,2.3,0.9l0.2,2.9H27l0.2-2.9c0.8-0.2,1.6-0.5,2.3-0.9l2.2,1.9
			l1.9-1.9L31.7,19c0.4-0.7,0.8-1.5,0.9-2.3L35.5,16.6z"/>
	</g>
	<line class="st2" x1="9.3" y1="18.5" x2="14.8" y2="19.4"/>
	<line class="st2" x1="9.2" y1="21" x2="14.7" y2="21.9"/>
	<line class="st2" x1="9.2" y1="23.3" x2="17.2" y2="24.6"/>
	<line class="st2" x1="41.5" y1="18.5" x2="36" y2="19.4"/>
	<line class="st2" x1="41.6" y1="21" x2="36.1" y2="21.9"/>
	<line class="st2" x1="41.6" y1="23.3" x2="33.6" y2="24.6"/>
</g>
</svg>
