<svg xmlns="http://www.w3.org/2000/svg" id="Layer_1" x="0" y="0" version="1.1" viewBox="0 0 50 50" xml:space="preserve"><style>.st0,.st2{fill:none;stroke:#444;stroke-linecap:round;stroke-linejoin:round;stroke-miterlimit:10}.st2{stroke-width:.5}</style><path fill="#46b8b0" d="M45.33 10.63c-.16-1.12-9.27.46-12.64.87-.12.01-.9-3.47-3.11-5.55-.88-.83-7.42-1.37-8.37-.63l-4.41 5.4c-1.45 0-14.4-2.88-12.6 4.59l-2.34.72c-.09.22-.02 4.76-.03 5l-.54 10.24 1.3 12.27 12.92.64 33.48-11.91V16.81c0-1.34-1.48-1.93-2.85-2.02-.13-.01-.66-3.14-.81-4.16z"/><path d="M25.17 40.78L6.73 38.91c-1.07-.11-1.88-1-1.88-2.08V13.1c0-1.24 1.07-2.2 2.3-2.08l10.9 1.11" class="st0"/><path d="M25.17 26.74V40.3" class="st2"/><path d="M25.17 40.78l18.44-1.87c1.07-.11 1.88-1 1.88-2.08V13.1c0-1.24-1.07-2.2-2.3-2.08L31.55 12.2" class="st0"/><path fill="none" stroke="#444" stroke-linecap="round" stroke-linejoin="round" stroke-miterlimit="10" stroke-width="2.5" d="M38.4 43.67H4.38c-1.58 0-2.85-1.28-2.85-2.85V18.07c0-1.58.76-3.15 2.34-3.15V13.1c0-1.71 1.47-3.05 3.18-2.89l10.39.99s.78-6.84 7.56-6.84 7.44 6.9 7.44 6.9L43.15 10a2.733 2.733 0 013.05 2.68l.03 2.54c1.58 0 2.27 1.28 2.27 2.85v17.85"/><path d="M31.58 11.71c0-3.66-2.99-6.62-6.67-6.57-3.5.05-6.44 3.01-6.47 6.52-.02 2.34 1.19 4.39 3.02 5.57.77.5 1.21 1.37 1.21 2.28v.91c0 .51.41.92.92.92h2.83c.51 0 .92-.41.92-.92v-.9c0-.9.41-1.78 1.17-2.26a6.532 6.532 0 003.07-5.55zm-8.23 11.24h3.6m-2.97 1.98h2.34" class="st0"/><path d="M10.23 24.37c-.71 0-1.29-.58-1.29-1.29v-1.04c0-.71.58-1.29 1.29-1.29.71 0 1.29.58 1.29 1.29v1.04c-.01.71-.59 1.29-1.29 1.29zm2.81-3.58v3.54m.25 5.11c-.71 0-1.29-.58-1.29-1.29v-1.04c0-.71.58-1.29 1.29-1.29.71 0 1.29.58 1.29 1.29v1.04c-.01.71-.59 1.29-1.29 1.29zm7.02 0c-.71 0-1.29-.58-1.29-1.29v-1.04c0-.71.58-1.29 1.29-1.29.71 0 1.29.58 1.29 1.29v1.04a1.3 1.3 0 01-1.29 1.29zm-4.21-3.58v3.55m-5.94 5.09c-.71 0-1.29-.58-1.29-1.29v-1.04c0-.71.58-1.29 1.29-1.29.71 0 1.29.58 1.29 1.29v1.04a1.3 1.3 0 01-1.29 1.29zm5.63 0c-.71 0-1.29-.58-1.29-1.29v-1.04c0-.71.58-1.29 1.29-1.29.71 0 1.29.58 1.29 1.29v1.04c0 .71-.58 1.29-1.29 1.29zm4.03 0c-.71 0-1.29-.58-1.29-1.29v-1.04c0-.71.58-1.29 1.29-1.29.71 0 1.29.58 1.29 1.29v1.04c0 .71-.58 1.29-1.29 1.29zm-6.85-3.58v3.55m-2.57-8.61v3.55m-1.53-3.55v3.55m8.55-3.55v3.55m-1.56-5.04c-.71 0-1.29-.58-1.29-1.29v-1.04c0-.71.58-1.29 1.29-1.29.71 0 1.29.58 1.29 1.29v1.04c0 .71-.58 1.29-1.29 1.29zm2.68-3.58v3.54m21.57.04c.71 0 1.29-.58 1.29-1.29v-1.04c0-.71-.58-1.29-1.29-1.29-.71 0-1.29.58-1.29 1.29v1.04c0 .71.58 1.29 1.29 1.29zm-2.82-3.58v3.54m-.24 5.11c.71 0 1.29-.58 1.29-1.29v-1.04c0-.71-.58-1.29-1.29-1.29-.71 0-1.29.58-1.29 1.29v1.04c0 .71.58 1.29 1.29 1.29zm-7.02 0c.71 0 1.29-.58 1.29-1.29v-1.04c0-.71-.58-1.29-1.29-1.29-.71 0-1.29.58-1.29 1.29v1.04c0 .71.58 1.29 1.29 1.29zm4.2-3.58v3.55m5.95 5.09c.71 0 1.29-.58 1.29-1.29v-1.04c0-.71-.58-1.29-1.29-1.29-.71 0-1.29.58-1.29 1.29v1.04c0 .71.58 1.29 1.29 1.29zm-5.63 0c.71 0 1.29-.58 1.29-1.29v-1.04c0-.71-.58-1.29-1.29-1.29-.71 0-1.29.58-1.29 1.29v1.04c0 .71.58 1.29 1.29 1.29zm-4.03 0c.71 0 1.29-.58 1.29-1.29v-1.04c0-.71-.58-1.29-1.29-1.29-.71 0-1.29.58-1.29 1.29v1.04c0 .71.58 1.29 1.29 1.29zm6.84-3.58v3.55m2.58-8.61v3.55m1.53-3.55v3.55m-8.56-3.55v3.55m1.57-5.04c.71 0 1.29-.58 1.29-1.29v-1.04c0-.71-.58-1.29-1.29-1.29-.71 0-1.29.58-1.29 1.29v1.04c0 .71.58 1.29 1.29 1.29zm-2.68-3.58v3.54M27.51 8.11s3.06 2.88.36 6.93" class="st2"/></svg>