<?xml version="1.0" encoding="UTF-8"?>
<svg version="1.1" viewBox="0 0 2048 1088" width="1280" height="1280" xmlns="http://www.w3.org/2000/svg">
<path transform="translate(214,470)" d="m0 0h76l61 1 89 3 105 5 51 3 14 2 6 5 1 2v96l-3 14-6 12-8 9-14 9-15 6-24 7-38 7-27 3-34 2h-136l-99-3-111-5-74-4-7-1 2-15 20-122 4-20 3-3 13-3 30-4 36-3 41-2z" fill="#85A67B"/>
<path transform="translate(627,233)" d="m0 0h18l4 4 5 15 4 21 2 20v38l-3 21-6 21-8 20-9 16-8 11-8 3-42 6-40 4-29 2-22 1h-60l-43-3-61-5-67-4-56-2-5-2-2-3v-19l6-92 4-11 7-11 10-10 15-10 19-9 16-5 11-2 37-2 241-10z" fill="#83B3B5"/>
<path transform="translate(1284,58)" d="m0 0h64l29 44 29 43 48 72 29 43 29 44 12 17 7 11 1-274h67v387h-63l-8-11-40-60-25-37-22-33-29-43-20-30-29-43-11-17-1 274h-67z" fill="#6A645E"/>
<path transform="translate(1019,51)" d="m0 0h43l23 3 22 6 16 6 17 9 14 10 13 12 11 12 12 18 8 16 6 14 6 20 5 24 3 31v39l-3 31-5 24-6 20-8 19-10 18-10 13-9 10-9 9-12 9-15 9-18 8-20 6-24 4-31 2-26-2-19-3-21-6-15-6-17-9-12-9-10-9-11-11-11-15-9-16-7-15-7-21-5-22-3-22-1-12v-48l3-27 5-24 6-20 8-18 8-15 11-15 11-12 9-9 17-12 21-11 21-7 26-5zm11 57-19 3-16 5-13 7-9 7-7 6-11 14-10 19-6 18-5 25-2 20v39l3 27 5 22 7 19 8 15 9 11 9 9 14 9 11 5 13 4 22 3h16l21-3 16-5 14-7 12-9 8-8 9-13 8-16 6-18 4-19 2-16 1-16v-29l-2-23-5-25-7-21-8-15-8-11-7-8-13-10-16-8-17-5-17-2z" fill="#6A635E"/>
<path transform="translate(1680,58)" d="m0 0h245l1 1v55h-179v107l5-1h135l23 1v56l-4 1h-159v111l5-1 179 1v56h-251l-1-12v-368z" fill="#6B645F"/>
<path transform="translate(363,22)" d="m0 0h258l7 3 7 8 4 10 4 20 2 26v26l-2 38-3 31-2 6-238 13h-21l-12-5-9-7-7-10-5-12-2-10v-10l17-122z" fill="#DA8D44"/>
<path transform="translate(1584,620)" d="m0 0h18l4 4 12 18 27 40 29 43 12 18 1 2 1-125h20l1 1v160l-6 1h-14l-10-14-14-21-58-86-2-3-1 123-20 1-1-1v-160z" fill="#6C6761"/>
<path transform="translate(948,618)" d="m0 0h23l14 3 12 5 13 10 9 12 6 13 4 15 2 17v17l-2 16-4 16-7 14-8 10-10 8-12 6-11 3-7 1h-22l-15-3-16-8-8-7-8-9-7-14-4-13-2-13v-32l4-20 5-12 6-10 9-10 10-7 11-5zm6 18-12 2-12 6-7 6-6 9-5 13-3 20v18l3 19 5 14 7 9 8 7 8 4 14 3h11l14-3 9-5 8-7 8-14 4-15 1-8v-26l-3-16-5-13-7-10-9-7-9-4-11-2z" fill="#6B655F"/>
<path transform="translate(895,876)" d="m0 0h98l1 1v17l-78 1-1 52 31-1h40l1 1v17l-1 1h-71v54h80l1 1v17h-102v-160z" fill="#6C6760"/>
<path transform="translate(1099,871)" d="m0 0h20v166l-13 1-3-9-1-8-14 12-11 5-10 2h-10l-13-3-9-5-7-6-7-11-4-9-3-15v-23l4-18 6-12 9-10 8-5 9-3 5-1h15l12 3 11 6 4 3 1-59zm-40 65-9 4-6 5-5 8-4 15v23l3 12 5 9 4 5 9 5 4 1h12l11-4 9-7 6-8v-54l-9-8-11-5-3-1z" fill="#6B655F"/>
<path transform="translate(1785,663)" d="m0 0 15 1 13 4 8 6 7 8 5 11 2 10 1 13v14h-80l3 14 4 9 5 6 10 5 12 2 17-1 15-4 5-2h3v17l-9 4-12 3-8 1h-20l-16-4-10-6-6-5-7-10-5-14-2-12v-20l3-16 5-12 8-10 9-6 9-4zm-3 17-10 3-8 6-5 8-3 10v6l3 1h53l4-1-1-12-4-11-5-5-8-4-5-1z" fill="#6B6660"/>
<path transform="translate(1452,663)" d="m0 0 16 1 10 3 9 5 7 7 6 12 3 13v26h-79l3 15 5 10 7 6 10 4 17 1 14-2 15-5h3v17l-9 4-12 3-8 1h-20l-16-4-9-5-8-7-7-11-5-16-1-8v-21l3-15 5-12 7-9 8-6 11-5zm-2 17-10 3-8 6-5 8-3 10v6l2 1h55l3-1-2-16-4-8-7-6-10-3z" fill="#6B6660"/>
<path transform="translate(1175,663)" d="m0 0 16 1 10 3 10 6 6 8 4 13v87l-5 1h-8l-2-3-2-13-1-1-7 8-10 7-9 3-5 1h-14l-13-4-8-6-6-7-4-11v-17l4-11 9-10 12-6 7-2 10-1h32l-2-16-4-8-6-3-5-1h-16l-20 4-11 3v-16l5-3 15-4zm-3 61-11 2-8 4-5 8-1 4v8l3 9 8 7 8 2 10-1 9-4 8-6 6-7 2-4v-21l-1-1z" fill="#6B6560"/>
<path transform="translate(1674,919)" d="m0 0h17l14 3 12 6 6 5 9 13 4 11 2 11 1 12-2 17-4 13-7 12-7 7-10 6-13 4-8 1h-11l-12-2-12-5-9-7-6-7-7-14-3-14v-24l4-16 7-13 10-10 12-6zm2 17-11 4-8 7-6 12-2 8v24l3 12 6 10 6 5 9 4 5 1h10l13-4 8-7 6-12 2-9v-22l-3-13-6-10-7-6-11-4z" fill="#6B655F"/>
<path transform="translate(1420,919)" d="m0 0h18l16 4 11 8 5 9 2 6v91l-12 1-2-2-3-15-11 11-12 6-11 2h-9l-13-3-9-6-7-8-4-10v-19l4-10 6-8 11-7 10-3 7-1h35l-1-15-3-7-4-4-7-2h-20l-21 5-7 1v-16l10-4 13-3zm0 61-9 2-8 6-3 5-1 4v10l3 8 7 6 5 2h12l9-3 10-7 6-8 2-4v-20l-1-1z" fill="#6B655F"/>
<path transform="translate(1815,919)" d="m0 0h15l11 3 8 5 5 5 5 8 3 8 2 15v74h-21l-1-79-3-10-5-6-9-4h-16l-12 6-8 8-4 7-1 78h-21v-115l14-1 1 1 3 17 11-11 14-7z" fill="#6D6861"/>
<path transform="translate(1151,921)" d="m0 0 20 1 1 80 4 11 8 7 7 2h9l11-4 10-9 6-9 1-78h21v115l-13 1-3-9-1-10h-2l-2 4-7 7-10 6-16 4h-10l-12-3-10-6-7-9-5-14-1-7v-79z" fill="#6B6660"/>
<path transform="translate(1848,666)" d="m0 0h24l16 23 12 18 3-1 11-16 12-17 5-7h21l-2 4-14 20-13 18-9 13 2 5 11 15 14 20 13 19v2h-22l-5-6-17-25-10-15-2-1-2 5-16 23-12 18-2 1h-20l2-5 12-16 13-19 12-17 1-5-11-15-12-17-14-20z" fill="#6B6660"/>
<path transform="translate(1321,919)" d="m0 0h17l16 4 6 3v17l-9-3-12-3h-15l-10 3-9 6-6 10-3 13v20l4 16 6 9 10 6 9 2h11l14-3 11-4h2v17l-12 5-9 2-9 1h-10l-13-2-10-4-9-6-7-8-6-12-3-12-1-8v-19l2-12 5-13 6-8 8-8 12-6z" fill="#6B665F"/>
<path transform="translate(1297,663)" d="m0 0 16 1 13 4 5 3v16l-5-1-12-4-6-1h-12l-13 4-7 5-6 10-3 12v23l3 12 5 9 7 6 7 3 5 1h16l15-4 9-3v17l-8 4-11 3-7 1h-18l-16-4-10-6-8-8-8-16-3-16v-22l3-15 7-14 11-11 12-6 8-2z" fill="#6B6660"/>
<path transform="translate(1989,634)" d="m0 0h13v31l25 1v16l-1 1h-24l1 71 4 7 9 3h12v17l-1 1-7 1h-10l-10-2-8-4-6-7-4-10-1-7v-70h-20v-11l17-6h3l4-18z" fill="#6B6862"/>
<path transform="translate(1516,890)" d="m0 0h12l1 31h23l1 1v16h-25l1 69 3 8 6 4 17 1v14l-2 4-13 1-13-2-8-4-7-8-4-12v-75h-20v-10l10-4 10-3 2-11 5-19z" fill="#6A645F"/>
<path transform="translate(1346,615)" d="m0 0h31l1 1v165l-7 1h-13l-1-2v-150l-5-2-6-4z" fill="#6C6A65"/>
<path transform="translate(1058,666)" d="m0 0h14l2 8 1 11 4-4 7-8 10-6 3-1h17v18l-15 2-10 5-5 5-4 6-2 5-1 74-7 1h-14z" fill="#6B6660"/>
<path transform="translate(1601,921)" d="m0 0 2 1v114l-1 1h-20l-1-100-10-7v-8z" fill="#6C6760"/>
<path transform="translate(1578,877)" d="m0 0h24l1 1-1 17-23 1-1-1z" fill="#6C6661"/>
</svg>
