<?xml version="1.0" standalone="no"?>
<!DOCTYPE svg PUBLIC "-//W3C//DTD SVG 20010904//EN"
 "http://www.w3.org/TR/2001/REC-SVG-20010904/DTD/svg10.dtd">
<svg version="1.0" xmlns="http://www.w3.org/2000/svg"
 width="635.000000pt" height="738.000000pt" viewBox="0 0 635.000000 738.000000"
 preserveAspectRatio="xMidYMid meet">

<g transform="translate(0.000000,738.000000) scale(0.100000,-0.100000)"
fill="#000000" stroke="none">
<path d="M0 3690 l0 -3690 3175 0 3175 0 0 3690 0 3690 -3175 0 -3175 0 0
-3690z m3765 3514 c129 -21 128 -20 121 -57 -4 -17 -10 -35 -15 -40 -6 -6 -74
0 -165 14 l-156 24 0 43 0 44 63 -7 c34 -3 103 -13 152 -21z m-435 -604 c47
-8 87 -15 89 -17 2 -1 -4 -12 -14 -23 -23 -25 -31 -107 -15 -155 34 -103 153
-161 264 -128 103 30 155 98 156 202 l0 54 73 -7 c181 -17 490 -67 549 -90
294 -110 517 -310 649 -582 53 -107 79 -218 79 -334 0 -51 -3 -57 -36 -84 -47
-37 -91 -108 -147 -236 l-46 -105 -1 295 c-1 353 -5 379 -95 516 -108 166
-258 298 -436 384 -99 48 -111 49 -107 13 2 -20 16 -33 63 -58 94 -51 251
-173 324 -251 79 -85 126 -162 143 -229 14 -60 22 -512 13 -702 l-7 -133 -44
0 c-39 0 -44 3 -44 23 0 12 -15 65 -32 117 -30 85 -40 102 -102 167 -93 99
-175 149 -291 178 -129 33 -293 56 -400 57 -243 2 -443 -126 -540 -347 l-26
-58 -67 8 c-37 5 -92 11 -122 14 -53 6 -55 7 -61 41 -8 46 -43 132 -80 196
-31 54 -90 114 -179 181 -69 52 -89 59 -225 86 -89 17 -148 21 -310 22 l-200
0 -69 -32 c-38 -18 -70 -33 -72 -33 -9 0 -3 92 11 155 31 142 85 292 134 373
174 290 425 470 734 528 90 16 369 13 487 -6z m201 -161 c10 -2 10 -2 52 -14
41 -11 75 8 96 56 21 46 31 35 31 -35 0 -32 -6 -48 -24 -65 -22 -21 -33 -23
-90 -19 -83 5 -120 29 -124 81 -2 20 2 46 9 59 12 22 13 22 27 -20 7 -23 18
-43 23 -43z m-1059 -919 c196 -26 217 -31 285 -72 130 -78 234 -226 264 -376
10 -49 17 -64 34 -67 58 -13 285 -33 320 -28 38 5 41 8 64 67 66 169 184 276
357 321 73 19 129 19 277 0 210 -26 283 -44 348 -87 114 -76 188 -183 229
-330 11 -40 27 -78 36 -85 9 -7 37 -15 63 -18 25 -4 52 -8 60 -11 11 -4 12
-40 7 -212 -4 -114 -12 -232 -17 -263 -22 -128 -115 -296 -196 -352 -67 -46
-85 -65 -81 -90 12 -88 193 59 291 236 50 92 70 161 83 297 l7 75 17 -55 c21
-70 49 -125 96 -185 34 -45 36 -52 30 -98 -10 -89 -133 -251 -246 -325 -138
-91 -182 -106 -369 -122 -86 -8 -130 -6 -245 10 -78 10 -172 22 -211 25 -38 3
-421 49 -850 102 -545 67 -795 101 -831 115 -88 32 -188 110 -244 189 -61 88
-86 152 -106 277 -9 53 -18 106 -20 117 -2 11 -22 45 -45 75 -74 98 -91 147
-97 283 -5 133 -4 137 60 137 l36 0 -5 -94 c-6 -103 10 -191 53 -276 23 -48
126 -152 184 -187 150 -91 406 -86 532 10 50 38 127 131 168 202 85 148 60
348 -64 512 -133 176 -404 240 -597 142 -53 -26 -182 -139 -206 -180 -16 -26
-22 -29 -71 -29 l-54 0 7 38 c15 83 123 216 218 267 67 38 158 63 224 64 29 1
121 -8 205 -19z m2842 -193 c-91 -97 -152 -240 -184 -431 l-17 -101 -31 -3
c-17 -2 -41 2 -53 8 -19 11 -21 17 -15 63 12 88 46 207 89 312 35 85 50 109
100 158 58 55 61 57 114 57 l55 0 -58 -63z m307 -45 c29 -40 59 -129 59 -174
0 -21 -5 -28 -19 -28 -35 0 -79 -34 -110 -85 -55 -91 -64 -128 -65 -270 -1
-123 0 -133 27 -188 34 -68 62 -90 117 -89 22 0 40 -1 40 -2 0 -19 -62 -105
-102 -141 l-50 -45 -83 0 -83 0 -41 46 c-75 85 -118 272 -108 472 7 149 34
251 93 356 74 129 122 171 213 185 66 10 83 4 112 -37z m-3360 -149 c20 -20 6
-191 -17 -200 -21 -8 -147 15 -156 29 -4 7 -5 20 -2 28 3 8 11 48 17 88 l12
74 67 -4 c37 -2 73 -9 79 -15z m202 -19 l47 -6 -1 -47 c-1 -25 -4 -70 -7 -100
l-7 -55 -70 3 c-97 3 -100 7 -85 119 13 92 20 105 60 96 8 -1 36 -6 63 -10z
m747 -1385 c52 -5 111 -12 130 -14 137 -15 255 -48 362 -100 61 -30 116 -55
123 -55 6 0 35 -7 64 -16 52 -15 53 -16 34 -36 -10 -11 -38 -32 -63 -46 -127
-73 -156 -107 -111 -132 27 -14 179 63 253 130 l58 51 97 -11 c53 -6 99 -13
102 -16 10 -10 -62 -140 -125 -223 -81 -109 -141 -150 -344 -236 -184 -78
-243 -89 -431 -83 -135 4 -138 5 -194 39 -69 42 -149 125 -164 172 -20 59 -11
122 22 162 26 32 84 72 92 63 1 -2 21 -40 44 -86 38 -76 44 -83 69 -80 21 2
28 9 30 30 4 32 -42 184 -109 362 -27 71 -49 131 -49 133 0 4 2 4 110 -8z
m1240 -265 c0 -4 -28 -34 -62 -69 -62 -61 -145 -194 -166 -267 -73 -243 -74
-255 -81 -818 l-6 -495 -267 -3 -266 -2 -21 34 c-12 18 -21 43 -21 55 0 20 5
21 78 21 42 0 141 3 220 7 l143 6 -3 31 -3 31 -100 6 c-55 4 -161 7 -236 8
l-135 1 -17 35 c-30 64 -37 61 190 69 125 5 213 12 221 18 8 7 12 26 10 47 -3
33 -6 36 -37 39 -18 2 -38 -1 -44 -7 -12 -12 -363 -16 -391 -5 -9 3 -16 14
-16 24 0 11 -4 21 -9 24 -5 3 -12 22 -16 43 -4 20 -15 53 -25 73 -19 39 -94
256 -104 307 -13 57 -11 57 -319 50 -155 -4 -319 -10 -364 -13 -99 -8 -95 -17
-57 136 14 58 27 110 28 115 1 6 27 59 58 118 69 132 163 264 201 284 26 13
102 21 112 11 3 -2 -6 -24 -18 -49 -15 -31 -23 -65 -24 -114 -3 -85 26 -154
87 -209 40 -36 169 -106 244 -133 162 -56 408 -24 635 82 215 102 394 278 463
456 l23 59 47 0 c27 0 48 -3 48 -6z m320 -59 c19 -10 57 -34 84 -53 l49 -36
-69 -21 c-38 -12 -79 -27 -92 -34 -48 -26 -203 -178 -235 -232 -72 -120 -102
-282 -82 -439 6 -53 16 -104 22 -115 6 -11 14 -38 18 -60 22 -123 85 -272 212
-498 30 -55 51 -102 47 -107 -5 -4 -111 -60 -236 -124 -167 -86 -229 -113
-234 -104 -5 7 -10 231 -12 498 -4 538 6 790 38 911 28 108 84 236 128 294 42
56 119 117 166 133 44 16 155 8 196 -13z m-4310 -148 c102 -42 677 -416 739
-481 37 -38 39 -53 5 -33 -65 39 -100 61 -226 142 -228 147 -257 165 -311 186
-29 11 -107 50 -174 85 -115 61 -123 67 -123 95 0 36 15 37 90 6z m2114 -84
c-49 -101 -133 -337 -152 -428 -8 -40 -8 -40 -60 -43 -61 -4 -65 7 -32 79 11
24 20 55 20 68 0 19 93 214 110 231 10 10 90 119 90 123 0 7 65 77 71 77 4 0
-17 -48 -47 -107z m2531 9 c39 -8 39 -8 -35 -20 -196 -33 -343 -164 -403 -357
-9 -27 -23 -103 -32 -168 -13 -94 -14 -131 -6 -187 25 -156 10 -142 -44 43
-34 119 -37 134 -33 240 3 111 4 116 46 200 66 133 163 219 279 246 47 11 174
12 228 3z m-2808 -146 c-31 -62 -61 -133 -67 -157 -6 -24 -17 -53 -25 -64 -7
-11 -15 -36 -19 -55 -15 -74 -25 -87 -69 -93 -23 -4 -56 -9 -73 -13 -30 -6
-32 -4 -36 29 -2 20 -1 34 3 32 3 -3 12 23 20 58 17 84 67 180 129 249 53 59
183 154 188 137 2 -5 -21 -60 -51 -123z m-1746 22 c338 -164 589 -321 712
-443 42 -43 77 -82 77 -88 0 -6 -8 -3 -17 5 -154 131 -274 211 -498 333 -88
48 -182 102 -210 120 -27 17 -79 43 -115 58 -164 64 -200 82 -200 99 0 25 87
-5 251 -84z m4736 -3 l58 -26 121 -357 c233 -686 249 -743 225 -830 -22 -83
-32 -92 -105 -92 l-64 0 -5 48 c-2 26 -21 92 -41 147 -20 55 -57 166 -82 246
l-46 147 26 38 c61 91 67 157 25 296 -26 86 -65 132 -144 172 -69 35 -118 32
-179 -11 -88 -62 -115 -166 -76 -292 40 -127 74 -165 190 -211 l65 -26 53
-165 c29 -90 64 -186 77 -214 13 -27 27 -71 30 -97 6 -42 5 -48 -10 -48 -39 0
-316 32 -420 48 l-109 17 -70 210 -70 210 0 215 c-1 175 2 227 17 279 71 261
314 396 534 296z m-4958 -56 c225 -100 610 -301 731 -382 25 -17 82 -62 128
-100 74 -62 81 -72 68 -85 -19 -19 -62 -3 -102 40 -31 32 -272 180 -314 193
-14 4 -83 39 -153 77 -71 38 -206 104 -300 147 -95 43 -184 84 -199 91 -16 7
-28 18 -28 23 0 14 31 47 43 47 6 0 62 -23 126 -51z m4933 -266 c84 -87 92
-283 13 -313 -16 -6 -40 -5 -72 5 -39 12 -53 23 -75 57 -32 53 -48 108 -48
172 0 41 5 53 34 82 49 49 98 48 148 -3z m-2292 -132 c33 -5 3 -9 -120 -14
-91 -4 -277 -17 -414 -27 -137 -11 -267 -20 -290 -19 -38 1 -37 2 24 15 70 16
248 30 510 40 91 4 167 8 169 10 6 6 71 3 121 -5z m58 -149 c3 -39 5 -42 25
-36 18 6 20 5 10 -8 -9 -10 -10 -24 -3 -49 6 -18 10 -35 10 -37 0 -1 -9 3 -20
10 -11 7 -20 18 -20 24 0 23 -98 33 -365 39 -210 5 -302 3 -415 -9 -80 -9
-177 -16 -215 -16 -39 0 -86 -5 -105 -11 -19 -6 -69 -14 -110 -19 -41 -4 -88
-11 -105 -15 -28 -6 -28 -5 8 15 42 23 90 34 317 75 150 27 317 41 650 54 107
4 175 9 150 11 -43 3 -42 4 20 10 36 4 88 7 115 6 l50 -1 3 -43z m117 -62 c14
-40 23 -76 20 -79 -12 -11 -37 29 -50 80 -32 117 -10 117 30 -1z m66 -19 c7
-25 19 -56 26 -67 7 -12 38 -94 68 -184 30 -89 59 -167 64 -174 6 -7 21 -44
35 -82 46 -131 77 -209 87 -219 5 -5 9 -17 9 -27 0 -22 51 -128 62 -128 11 0
13 -7 -47 160 -31 84 -54 157 -52 163 8 24 257 -672 257 -717 0 -29 49 -146
61 -146 5 0 8 -3 7 -7 -1 -5 4 -18 11 -31 7 -13 10 -29 8 -36 -6 -15 -81 -41
-99 -33 -8 2 -33 52 -56 110 -41 103 -69 167 -137 312 -31 66 -44 145 -25 145
12 0 6 39 -10 73 -7 15 -10 30 -6 34 9 9 24 -14 32 -47 3 -14 30 -83 59 -155
30 -71 73 -179 96 -240 23 -60 45 -114 50 -119 15 -17 -41 178 -77 264 -19 47
-41 105 -48 130 -8 25 -24 68 -36 95 -12 28 -42 104 -67 170 -25 66 -58 144
-73 175 -15 30 -35 78 -43 106 -8 28 -22 64 -30 80 -8 16 -37 97 -65 181 -28
83 -64 183 -81 221 -17 39 -31 76 -31 84 0 24 38 -44 51 -91z m-1703 -51 c19
-11 32 -26 29 -33 -6 -19 -55 -20 -82 -3 -16 11 -47 16 -93 16 -74 0 -88 5
-71 27 8 9 38 13 98 13 69 0 93 -4 119 -20z m1757 -239 c5 -23 4 -31 -4 -27
-6 4 -11 16 -11 26 0 10 -3 20 -7 22 -12 5 -43 76 -43 96 0 24 56 -76 65 -117z
m6 -173 c6 -24 21 -63 34 -88 12 -25 25 -56 29 -70 l7 -25 -25 28 c-14 15 -26
34 -26 42 0 7 -13 41 -30 76 -16 34 -27 66 -24 71 11 18 24 6 35 -34z m-261
-88 c0 -13 -1 -13 -10 0 -5 8 -10 22 -10 30 0 13 1 13 10 0 5 -8 10 -22 10
-30z m1130 -149 l0 -49 -57 -7 c-32 -3 -132 -1 -223 4 -91 6 -174 11 -185 11
-16 0 -24 10 -31 40 -8 28 -8 41 0 44 6 2 120 5 254 5 l242 1 0 -49z m965 10
c121 -17 268 -35 327 -42 59 -7 112 -16 118 -19 7 -4 8 -18 5 -33 -9 -35 -174
-123 -465 -247 -201 -86 -270 -112 -555 -210 -60 -20 -128 -45 -150 -55 -22
-9 -60 -23 -85 -30 -25 -8 -63 -20 -85 -28 -22 -8 -55 -18 -72 -22 l-33 -7 0
104 c0 81 -5 118 -23 170 l-23 68 37 24 c51 34 613 315 674 337 66 24 75 24
330 -10z m-1670 -28 c25 -53 46 -123 36 -123 -9 0 -10 2 -47 98 -26 68 -19 85
11 25z m700 -133 c3 -6 -4 -14 -18 -19 -13 -5 -40 -20 -60 -34 -47 -32 -155
-57 -246 -57 -78 0 -92 11 -104 77 -6 30 -4 32 26 36 73 9 396 7 402 -3z
m-288 -239 c-18 -28 -35 -50 -38 -50 -3 -1 -14 17 -24 40 -22 49 -14 59 52 59
l41 0 -31 -49z m162 -80 c37 -87 23 -182 -36 -243 -27 -29 -47 -35 -58 -19
-14 24 -25 122 -19 175 5 48 13 65 41 97 20 22 39 39 43 39 4 0 17 -22 29 -49z
m-2909 -102 c13 -8 11 -12 -10 -26 -14 -10 -46 -38 -72 -65 -59 -59 -84 -132
-74 -221 8 -76 27 -115 88 -177 95 -97 216 -137 376 -126 134 9 180 22 236 64
27 20 57 43 66 50 15 11 23 3 70 -69 39 -58 50 -83 41 -88 -7 -5 -74 -11 -149
-15 -75 -3 -193 -13 -261 -21 -92 -11 -148 -12 -222 -5 -133 13 -141 15 -241
72 -69 38 -98 63 -138 113 -59 74 -70 105 -70 196 0 127 38 199 153 291 46 36
52 38 120 38 40 0 79 -5 87 -11z m265 -111 c78 -50 295 -256 295 -279 0 -24
-44 -71 -93 -99 -51 -29 -55 -30 -193 -30 -131 0 -144 2 -192 26 -58 29 -96
69 -124 132 -18 39 -18 50 -8 113 13 79 35 110 107 158 71 47 110 43 208 -21z
m3948 -47 c45 -27 109 -99 133 -149 29 -58 26 -210 -5 -280 -29 -65 -134 -166
-188 -182 -21 -6 -101 -15 -178 -20 -192 -13 -696 -33 -701 -28 -3 4 4 31 31
108 15 42 26 44 245 55 87 5 137 11 128 16 -8 6 9 7 42 4 74 -8 427 18 441 32
13 13 3 49 -16 57 -8 3 -119 1 -247 -5 -128 -5 -308 -12 -399 -16 l-166 -6 -8
87 c-4 48 -4 90 0 94 4 4 52 8 108 10 194 4 661 34 684 43 27 10 31 44 6 54
-22 9 -170 7 -508 -5 -358 -13 -332 -14 -338 13 -2 12 -7 29 -11 38 -5 12 6
22 51 41 32 15 83 31 113 37 64 14 449 30 625 27 106 -2 125 -5 158 -25z
m-2261 -96 c-162 -184 -107 -435 113 -523 236 -94 524 -16 611 166 30 62 36
141 14 197 -10 26 -9 32 10 47 23 19 107 45 173 54 l44 6 21 -49 c43 -99 50
-238 16 -321 -7 -18 -32 -61 -55 -96 l-42 -64 -111 -11 c-131 -12 -468 -26
-651 -26 -127 0 -132 1 -197 33 -75 37 -139 101 -171 172 -15 34 -22 73 -25
156 -4 104 -3 114 23 167 41 88 118 136 218 137 l49 0 -40 -45z m365 -54 c220
-77 260 -97 267 -134 26 -131 -44 -244 -165 -268 -75 -14 -240 -10 -300 7
-110 32 -178 140 -166 260 9 86 34 124 106 162 35 17 69 32 76 32 8 0 89 -27
182 -59z m865 21 c26 -56 38 -133 38 -242 0 -124 -15 -204 -48 -257 l-27 -43
-87 0 c-49 0 -88 2 -88 5 0 3 11 28 25 55 58 115 72 276 35 405 -11 38 -20 75
-20 81 0 12 73 31 125 33 25 0 33 -5 47 -37z"/>
<path d="M3845 5238 c-97 -40 -155 -79 -217 -145 -56 -61 -83 -112 -103 -195
-32 -136 -14 -278 46 -373 121 -192 324 -278 545 -232 127 27 278 149 335 272
24 51 32 84 36 149 10 159 -26 279 -113 375 -96 106 -220 165 -372 176 -71 6
-83 3 -157 -27z m36 -258 c16 0 19 -8 18 -52 0 -29 -6 -75 -13 -103 l-12 -50
-74 3 c-41 2 -76 5 -79 7 -2 2 2 50 10 106 l13 101 59 -6 c33 -3 68 -6 78 -6z
m202 -31 l57 -12 -1 -61 c0 -33 -5 -76 -11 -94 l-10 -33 -76 3 -77 3 -3 45
c-5 60 25 160 48 160 9 0 42 -5 73 -11z"/>
<path d="M2942 4448 c2 -26 12 -39 49 -64 55 -36 146 -48 268 -34 83 9 124 32
129 74 5 39 -20 42 -106 12 -93 -32 -167 -34 -221 -7 -20 11 -43 27 -50 35 -8
9 -27 16 -43 16 -27 0 -29 -2 -26 -32z"/>
<path d="M3670 2391 c-16 -30 -12 -69 8 -80 26 -14 72 -2 72 19 0 10 3 32 6
49 6 31 6 31 -34 31 -31 0 -44 -5 -52 -19z"/>
<path d="M5159 2674 c-10 -12 -10 -27 -1 -71 14 -67 26 -83 63 -83 33 0 45 28
36 87 -12 72 -64 108 -98 67z"/>
<path d="M2838 2403 c29 -2 74 -2 100 0 26 2 2 3 -53 3 -55 0 -76 -1 -47 -3z"/>
<path d="M3740 947 c0 -24 32 -85 37 -70 2 6 -5 29 -16 50 -12 23 -20 31 -21
20z"/>
</g>
</svg>
