<?xml version="1.0" standalone="no"?>
<!DOCTYPE svg PUBLIC "-//W3C//DTD SVG 20010904//EN"
 "http://www.w3.org/TR/2001/REC-SVG-20010904/DTD/svg10.dtd">
<svg version="1.0" xmlns="http://www.w3.org/2000/svg"
 width="635.000000pt" height="738.000000pt" viewBox="0 0 635.000000 738.000000"
 preserveAspectRatio="xMidYMid meet">

<g transform="translate(0.000000,738.000000) scale(0.100000,-0.100000)"
fill="#000000" stroke="none">
<path d="M2650 7295 c-85 -12 -181 -26 -213 -29 -83 -11 -87 -18 -71 -116 14
-88 31 -125 65 -135 11 -4 59 -1 105 5 47 7 88 10 90 7 6 -6 40 -213 51 -304
4 -39 2 -53 -7 -53 -7 0 -58 -7 -114 -15 -55 -8 -189 -26 -296 -39 -286 -37
-428 -82 -627 -203 -154 -93 -203 -132 -292 -234 -144 -165 -246 -380 -275
-579 l-12 -85 -64 -8 c-150 -19 -253 -38 -282 -53 -82 -42 -167 -169 -202
-300 -30 -111 -41 -282 -28 -411 16 -154 33 -216 94 -342 65 -133 143 -217
233 -251 62 -23 128 -24 310 -4 l60 6 25 -53 c64 -138 172 -268 279 -337 133
-85 262 -127 445 -143 175 -15 167 -20 -84 -54 -107 -14 -217 -33 -245 -42
-89 -27 -170 -80 -237 -152 -57 -61 -69 -70 -118 -80 -30 -7 -91 -29 -136 -51
-63 -30 -95 -54 -148 -110 -71 -76 -92 -113 -126 -232 -18 -62 -206 -644 -282
-873 -48 -146 -26 -250 73 -346 31 -30 49 -56 49 -71 0 -45 21 -98 51 -127 39
-40 254 -141 631 -298 70 -29 89 -42 99 -65 6 -16 9 -31 6 -35 -4 -3 -91 -6
-194 -7 l-188 -1 -60 -32 c-92 -48 -141 -87 -180 -145 -77 -114 -96 -269 -51
-403 13 -38 22 -73 20 -76 -2 -3 -48 -9 -103 -12 -206 -14 -554 -67 -576 -88
-5 -5 144 -9 383 -9 l392 0 68 -44 c113 -75 103 -74 947 -111 187 -9 477 -22
645 -31 168 -8 404 -16 526 -17 l220 -2 86 42 c59 30 101 59 139 98 l54 56
665 -5 c366 -4 724 -9 797 -12 100 -4 151 -2 209 10 63 13 154 16 517 16 264
0 437 4 432 9 -22 20 -356 72 -557 86 -54 4 -98 9 -98 12 0 3 23 31 52 62 128
140 157 329 77 497 -30 65 -118 163 -168 188 -16 9 -31 21 -34 28 -5 14 29 93
216 508 60 135 167 373 237 530 70 157 180 397 244 534 81 174 114 256 110
270 -4 12 -40 69 -80 128 -60 86 -80 107 -102 110 -27 3 -27 3 -30 91 -2 54
-7 87 -14 87 -44 0 -451 -227 -673 -376 -279 -186 -505 -411 -560 -557 -10
-26 -22 -47 -27 -47 -5 0 -30 12 -55 26 -24 15 -95 44 -156 64 l-112 38 -17
83 c-21 99 -76 241 -124 320 -86 142 -248 260 -406 296 -54 12 -85 26 -132 62
-115 87 -258 131 -428 131 -100 0 -108 1 -108 19 0 21 77 242 88 253 4 3 139
22 301 42 161 20 313 41 337 46 107 24 234 92 318 170 113 104 174 222 215
413 21 96 23 100 75 151 45 43 58 64 75 121 81 263 28 637 -120 832 -33 44
-42 67 -54 135 -38 216 -99 373 -205 527 -98 143 -161 206 -333 335 -81 60
-248 135 -372 166 -190 48 -282 48 -673 -1 -53 -6 -97 -8 -102 -3 -5 5 -18 70
-29 144 -12 74 -24 151 -27 171 -6 36 -6 36 36 43 61 10 99 32 106 63 6 24
-10 155 -23 190 -7 17 -36 16 -223 -12z m164 -102 c5 -23 6 -48 3 -55 -3 -9
-60 -21 -181 -37 -97 -13 -179 -22 -181 -19 -2 2 -5 28 -7 58 l-3 54 50 9
c108 18 242 35 275 33 33 -1 36 -4 44 -43z m652 -568 c126 -22 214 -50 318
-102 119 -60 164 -91 259 -182 144 -138 235 -282 298 -474 32 -96 78 -342 66
-353 -4 -4 -24 4 -44 17 -123 80 -230 94 -488 64 -261 -30 -326 -56 -445 -174
-84 -83 -105 -117 -155 -255 l-33 -91 -103 -12 c-141 -16 -149 -16 -155 5 -38
115 -171 268 -278 321 -98 48 -208 73 -286 66 -142 -13 -365 -47 -409 -62
-145 -48 -278 -158 -338 -280 -20 -41 -42 -102 -48 -136 l-11 -62 -56 -3 -56
-3 -8 88 c-4 48 -7 223 -8 388 -1 284 0 304 21 370 33 103 88 187 178 273 89
85 164 143 279 214 71 44 93 68 63 68 -7 0 -44 -15 -82 -34 -213 -102 -452
-360 -501 -541 -13 -49 -16 -112 -15 -345 1 -157 4 -315 7 -352 4 -45 3 -68
-4 -68 -6 0 -13 15 -17 33 -35 170 -134 364 -222 435 l-38 30 17 119 c35 240
116 400 287 572 180 180 391 289 641 332 137 23 451 62 457 55 2 -2 -1 -23 -7
-47 -17 -64 -6 -102 48 -157 37 -38 59 -52 99 -61 176 -42 332 144 226 269
-14 18 -22 35 -17 39 5 5 52 14 104 21 52 7 118 16 145 20 88 13 220 10 311
-5z m-698 -104 c3 -27 0 -32 -15 -29 -19 3 -28 30 -19 54 10 26 31 10 34 -25z
m-95 -17 c9 -51 32 -74 78 -74 42 0 66 19 75 58 12 55 13 56 34 37 56 -50 35
-136 -42 -174 -53 -25 -88 -27 -134 -5 -70 33 -96 114 -53 168 27 35 35 33 42
-10z m1555 -979 c88 -33 196 -115 243 -185 41 -62 84 -169 72 -181 -4 -4 -35
-11 -68 -14 l-60 -7 -33 50 c-37 58 -119 135 -172 162 -75 38 -148 52 -250 48
-91 -3 -104 -7 -183 -46 -216 -107 -327 -364 -252 -582 18 -53 135 -204 183
-237 92 -61 248 -88 377 -64 140 26 268 132 338 278 31 66 32 72 31 200 l0
131 54 7 c33 4 58 3 64 -3 7 -7 9 -60 6 -139 -5 -143 -24 -208 -81 -283 -18
-24 -37 -50 -44 -59 -6 -9 -20 -68 -31 -132 -35 -212 -135 -375 -277 -454 -99
-55 -166 -71 -410 -99 -218 -25 -406 -48 -770 -94 -88 -12 -227 -28 -310 -36
-82 -9 -250 -27 -372 -41 -266 -30 -376 -31 -503 -5 -139 28 -225 75 -331 180
-65 65 -95 104 -126 165 -59 116 -62 137 -24 181 68 76 116 206 127 335 4 44
10 79 14 79 8 0 14 -54 25 -225 8 -119 28 -202 66 -278 51 -101 168 -237 233
-271 58 -30 64 16 8 55 -121 86 -174 162 -221 314 -24 77 -40 253 -41 447 0
130 -6 121 82 133 26 4 54 15 62 24 9 10 25 52 36 95 27 106 63 169 140 246
67 68 135 107 220 128 80 19 363 44 447 39 179 -11 349 -141 413 -318 13 -35
28 -70 35 -77 10 -11 41 -10 175 4 178 19 200 28 200 82 0 38 34 134 66 190
39 66 140 163 209 198 65 35 121 48 277 69 174 22 276 19 356 -10z m-3145
-129 c74 -31 171 -180 216 -331 11 -39 28 -115 36 -170 19 -117 14 -125 -67
-125 -41 0 -48 3 -52 23 -2 12 -13 69 -24 127 -35 189 -117 357 -204 420 -24
17 -43 37 -43 43 0 10 32 19 93 26 7 0 27 -5 45 -13z m-188 -77 c61 -27 110
-79 162 -171 98 -177 125 -398 78 -643 -24 -129 -78 -225 -147 -261 -35 -18
-109 -18 -153 0 -53 22 -128 99 -159 161 -29 59 -27 82 4 65 80 -43 156 43
166 188 12 158 -24 285 -103 370 -27 28 -38 34 -64 30 -40 -6 -45 8 -29 80 15
70 53 146 87 178 33 31 93 32 158 3z m3349 -176 c13 -49 27 -196 19 -204 -12
-12 -164 -32 -173 -22 -12 12 -41 217 -32 225 10 10 49 15 119 17 51 1 63 -2
67 -16z m-247 -15 c15 -18 38 -207 27 -218 -10 -10 -154 -29 -170 -23 -12 4
-48 212 -38 222 6 6 114 28 150 30 12 0 26 -5 31 -11z m-737 -1384 c0 -3 -35
-105 -78 -227 -96 -271 -96 -271 -77 -291 26 -25 42 -8 72 77 33 96 47 104
111 58 148 -108 86 -312 -123 -407 -69 -31 -200 -45 -315 -34 -110 12 -125 15
-215 47 -64 22 -322 151 -353 176 -28 23 -153 196 -182 253 -49 97 -48 98 80
114 l109 13 55 -50 c59 -54 206 -136 234 -131 33 6 16 32 -45 68 -85 49 -153
101 -153 117 0 7 12 15 28 18 79 18 204 61 257 90 75 42 174 71 290 86 50 6
113 14 140 19 61 9 165 12 165 4z m-1231 -339 c47 -101 104 -177 199 -266 87
-83 132 -114 249 -173 212 -106 477 -140 642 -82 68 25 219 116 248 150 44 52
63 105 63 176 0 64 -24 139 -49 154 -26 16 -7 26 49 26 34 0 74 -6 89 -14 41
-21 145 -166 205 -283 56 -112 136 -386 115 -398 -5 -3 -143 -1 -306 5 -164 6
-331 10 -370 8 l-73 -3 -66 -190 c-36 -104 -77 -223 -91 -262 l-25 -73 -207 0
c-135 0 -211 4 -218 11 -6 6 -21 9 -34 7 -18 -2 -24 -9 -24 -28 0 -43 31 -50
247 -50 108 0 199 -4 202 -8 2 -4 -3 -32 -13 -62 l-18 -55 -238 -5 c-210 -4
-239 -7 -249 -22 -5 -9 -7 -21 -2 -25 4 -4 107 -10 229 -13 l222 -5 -3 -24
c-1 -13 -11 -43 -22 -67 l-19 -44 -284 0 -285 0 -5 493 c-5 543 -12 623 -68
798 -49 154 -128 275 -229 351 -19 14 -32 29 -27 34 7 7 67 20 109 23 12 1 29
-24 57 -84z m-221 9 c130 -65 239 -255 288 -504 15 -73 18 -177 21 -719 2
-349 1 -637 -4 -642 -7 -7 -496 230 -516 250 -5 5 7 33 26 62 30 48 71 125
155 294 32 64 95 257 117 359 14 60 16 107 12 200 -8 199 -58 305 -207 441
-80 72 -166 120 -237 131 -24 3 -43 8 -43 11 0 15 24 44 56 68 101 77 236 97
332 49z m1979 -181 c60 -69 107 -141 158 -243 47 -93 118 -289 111 -307 -4
-10 -21 -11 -68 -6 -35 3 -64 7 -66 8 -1 1 -13 47 -27 101 -43 178 -118 363
-189 467 -63 91 -2 76 81 -20z m2201 20 c7 -25 9 -49 5 -53 -4 -3 -48 -24 -98
-45 -135 -59 -384 -188 -490 -254 -150 -94 -243 -168 -353 -278 -56 -57 -104
-103 -107 -103 -24 0 46 96 141 196 109 113 340 283 570 422 139 83 286 162
304 162 10 0 20 -17 28 -47z m-4495 -70 c140 -44 265 -187 302 -345 30 -127
13 -274 -50 -446 -57 -156 -72 -164 -54 -32 14 106 6 316 -16 395 -40 143
-140 282 -243 338 -72 39 -165 61 -234 53 -46 -4 -58 -3 -58 8 0 29 141 57
245 49 33 -2 81 -11 108 -20z m2541 -25 c93 -49 195 -157 245 -260 40 -83 90
-252 78 -265 -7 -6 -162 13 -177 22 -5 3 -19 36 -30 73 -35 118 -82 234 -137
341 -52 100 -60 121 -47 121 3 0 34 -14 68 -32z m2020 -4 c9 -8 14 -19 11 -24
-3 -5 -38 -23 -78 -41 -144 -66 -504 -248 -592 -299 -124 -73 -262 -170 -329
-231 -90 -82 -91 -52 -1 38 177 176 521 390 860 534 103 44 108 45 129 23z
m-4691 -92 c157 -73 242 -215 267 -445 20 -178 -6 -354 -90 -608 -28 -83 -54
-159 -60 -168 -6 -12 -26 -21 -57 -25 -471 -65 -496 -67 -512 -51 -13 12 -13
20 -4 46 7 18 31 88 53 158 23 69 60 179 82 244 40 116 41 117 72 117 43 1
105 31 143 71 74 79 115 246 78 320 -26 52 -85 108 -125 119 -102 27 -219 -58
-256 -188 -34 -115 -18 -215 44 -277 l26 -27 -68 -201 c-37 -111 -78 -231 -92
-267 -13 -36 -23 -84 -24 -107 l0 -42 -52 -6 c-72 -9 -101 5 -135 62 -47 82
-43 105 106 568 73 226 146 453 163 505 17 52 41 114 55 138 57 100 243 131
386 64z m4817 -27 c12 -20 20 -41 17 -48 -3 -6 -72 -43 -153 -81 -460 -215
-713 -352 -862 -468 -61 -48 -62 -48 -92 -33 -17 9 -30 22 -30 30 0 18 132
131 220 190 149 98 426 242 820 427 50 24 56 22 80 -17z m-4938 -280 c40 -40
50 -97 31 -180 -8 -38 -24 -85 -35 -102 -78 -130 -238 -88 -238 63 0 63 23
142 52 179 53 67 144 87 190 40z m2577 -156 c219 -15 454 -45 590 -76 128 -28
221 -59 221 -74 0 -13 -17 -11 -95 10 -205 56 -567 92 -1068 107 -122 4 -228
11 -234 17 -7 5 -13 16 -13 25 0 13 26 14 222 9 122 -4 292 -12 377 -18z
m-639 -9 c0 -10 -12 -50 -26 -87 -14 -37 -38 -104 -54 -148 -16 -44 -57 -154
-91 -245 -33 -91 -76 -205 -94 -255 -18 -49 -47 -128 -64 -174 -45 -123 -31
-110 18 16 23 60 62 155 85 213 24 58 48 119 54 135 113 318 180 485 195 485
19 0 -17 -125 -68 -235 -16 -34 -67 -173 -94 -255 -10 -30 -52 -138 -93 -240
-42 -102 -108 -273 -148 -380 -39 -107 -79 -212 -87 -233 -9 -20 -14 -40 -11
-42 3 -3 15 23 28 57 29 82 78 207 243 623 174 438 243 614 252 643 9 32 30
21 29 -14 -1 -23 -112 -313 -193 -504 -25 -60 -201 -510 -201 -514 0 -3 -12
-31 -26 -62 -39 -86 -69 -176 -45 -134 5 8 50 114 100 235 51 121 108 258 128
305 20 47 51 121 68 165 145 357 185 460 185 471 0 19 15 18 31 -2 16 -19 14
-23 -93 -279 -44 -104 -130 -309 -190 -455 -195 -472 -359 -842 -376 -848 -8
-2 -10 2 -5 15 6 15 4 16 -9 5 -13 -10 -17 -10 -22 3 -4 12 -12 14 -27 10 -20
-7 -21 -4 -15 20 4 17 3 24 -4 20 -5 -3 -10 -13 -10 -21 0 -8 -4 -13 -9 -10
-7 5 10 57 78 241 10 28 55 154 99 280 75 215 173 483 243 670 32 84 155 431
169 476 19 62 50 92 50 49z m460 -110 c80 -5 222 -14 315 -20 411 -25 755
-101 755 -166 0 -17 4 -17 -56 0 -77 23 -206 44 -364 61 -185 19 -750 39 -857
30 l-81 -7 -21 47 c-11 26 -18 51 -15 56 7 12 141 11 324 -1z m1304 -56 c29
-11 17 -22 -34 -33 -28 -6 -73 -22 -100 -36 -56 -28 -70 -31 -70 -12 0 8 23
26 51 42 75 40 120 52 153 39z m86 -79 c47 -24 38 -41 -25 -48 -30 -3 -80 -17
-111 -31 l-56 -26 -29 21 c-45 32 -38 44 46 78 60 24 135 27 175 6z m-1520
-132 c0 -3 -20 -56 -44 -117 -76 -190 -132 -337 -171 -446 -40 -113 -69 -175
-85 -185 -20 -12 -9 25 46 167 31 79 67 172 79 208 46 128 136 355 147 367 11
14 28 17 28 6z m190 -148 c0 -8 -20 -65 -44 -127 -25 -62 -63 -162 -86 -223
-23 -60 -46 -114 -51 -119 -19 -20 -22 6 -7 52 23 67 154 408 162 421 10 16
26 13 26 -4z m943 -130 c43 -18 52 18 -91 -365 -157 -415 -168 -444 -179 -447
-17 -6 -83 27 -83 41 0 8 23 74 51 148 28 73 86 228 129 343 125 335 108 307
173 280z m239 -40 c-5 -28 -215 -583 -259 -683 -20 -46 -43 -87 -52 -91 -21
-11 -126 -22 -134 -15 -6 6 30 113 88 264 18 47 53 139 78 205 25 66 64 168
87 227 l41 107 42 4 c23 2 58 4 77 3 29 -1 34 -4 32 -21z m-2148 -165 c6 -7
-17 -88 -34 -120 -11 -20 -17 -20 -258 -18 l-247 3 -3 64 c-2 44 1 67 10 73
14 9 523 7 532 -2z m-839 -185 c204 -101 381 -193 394 -203 l24 -19 -33 -67
c-29 -58 -34 -79 -34 -144 -1 -43 3 -94 8 -114 7 -31 5 -38 -6 -38 -16 0 -512
174 -743 260 -288 108 -717 306 -729 336 -3 9 -6 29 -6 44 0 33 -3 32 160 50
52 6 183 24 290 40 185 27 239 35 285 38 11 1 187 -81 390 -183z m743 -11 c27
-8 27 -12 5 -86 l-17 -58 -87 0 c-121 0 -179 13 -257 59 -150 89 -147 91 121
91 117 0 222 -3 235 -6z m-49 -209 c9 -10 -38 -145 -50 -145 -4 0 -12 14 -19
30 -7 17 -28 50 -46 73 -19 23 -34 46 -34 51 0 11 137 3 149 -9z m-184 -92
c66 -70 82 -162 48 -270 -15 -46 -20 -53 -43 -53 -30 0 -62 27 -87 73 -27 49
-24 179 5 235 26 49 42 52 77 15z m3051 -148 c57 -39 102 -91 136 -156 20 -37
23 -59 23 -144 0 -87 -3 -106 -25 -149 -28 -55 -91 -122 -153 -164 -109 -74
-256 -108 -392 -93 -49 6 -188 16 -309 23 -120 7 -225 17 -233 23 -12 9 -6 24
38 90 81 126 74 122 126 74 73 -67 140 -92 261 -97 123 -6 193 7 277 52 193
101 242 307 109 455 -26 29 -60 59 -75 67 -16 8 -29 19 -29 23 0 17 54 29 125
30 64 1 74 -2 121 -34z m-3822 -15 c7 -7 -3 -10 -31 -10 -41 0 -60 11 -48 29
6 11 63 -3 79 -19z m3526 -30 c171 -87 207 -262 84 -399 -65 -73 -108 -86
-274 -86 -127 0 -138 2 -186 27 -56 29 -114 89 -114 117 0 35 165 208 269 280
59 42 135 81 159 81 12 0 40 -9 62 -20z m-3625 -75 c266 -13 297 -16 370 -41
108 -36 110 -38 82 -98 l-22 -49 -185 7 c-597 21 -679 20 -654 -4 18 -18 146
-30 474 -45 184 -9 336 -18 338 -20 3 -2 1 -52 -3 -110 l-7 -106 -77 6 c-105
8 -644 35 -703 35 -49 0 -73 -19 -51 -41 9 -9 155 -19 583 -40 152 -7 249 -16
256 -23 14 -15 59 -164 51 -172 -8 -9 -804 25 -855 37 -115 26 -210 110 -256
229 -12 30 -18 72 -17 128 0 104 22 154 101 234 95 95 108 96 575 73z m1856
-81 c115 -34 187 -164 177 -319 -9 -140 -100 -275 -225 -336 -61 -30 -144 -34
-400 -21 -114 7 -285 14 -380 18 l-172 7 -41 54 c-22 30 -53 78 -67 106 -25
48 -28 61 -27 162 0 103 2 115 32 178 37 78 39 78 163 47 116 -30 132 -39 124
-69 -17 -73 -17 -162 0 -206 22 -58 100 -135 170 -169 117 -55 322 -56 439 -3
67 31 140 102 169 165 48 105 17 241 -77 332 -25 25 -46 51 -46 58 0 18 94 16
161 -4z m-1218 -35 c40 -12 75 -25 79 -28 4 -4 -2 -31 -13 -61 -27 -69 -36
-212 -20 -305 7 -37 28 -99 47 -136 41 -83 41 -84 -82 -76 -105 6 -116 15
-150 121 -35 108 -42 229 -20 327 18 84 59 179 76 179 7 0 44 -10 83 -21z
m1026 -24 c63 -31 71 -39 88 -82 26 -69 24 -185 -4 -239 -24 -44 -75 -94 -126
-121 -42 -23 -277 -31 -344 -13 -97 28 -168 107 -179 200 -7 63 13 126 43 136
10 3 61 23 113 45 122 50 288 107 318 108 12 1 53 -15 91 -34z m611 -380 c132
-37 149 -45 128 -63 -23 -19 -328 -62 -328 -47 0 21 55 145 65 145 6 0 67 -16
135 -35z"/>
<path d="M2275 5239 c-125 -18 -289 -129 -348 -236 -77 -143 -76 -360 4 -484
38 -59 155 -164 211 -189 118 -51 280 -52 393 -1 74 34 200 147 240 216 31 53
55 149 55 222 0 119 -60 253 -154 341 -63 60 -176 118 -245 127 -25 3 -57 7
-71 9 -14 1 -52 -1 -85 -5z m340 -271 c13 -79 25 -164 25 -179 0 -14 -18 -19
-86 -29 -48 -7 -89 -9 -94 -4 -14 16 -39 208 -28 221 9 11 45 17 140 21 35 2
37 0 43 -30z m-231 -87 c23 -126 22 -138 -11 -145 -69 -13 -151 -17 -157 -8
-8 13 -31 210 -25 216 3 3 34 9 69 14 116 17 105 23 124 -77z"/>
<path d="M3312 4438 c-75 -43 -165 -49 -263 -18 -59 19 -72 21 -79 9 -5 -8 -4
-19 2 -27 49 -59 232 -82 325 -42 59 25 96 60 91 86 -5 27 -19 25 -76 -8z"/>
<path d="M2607 2393 c-11 -10 -8 -71 3 -78 5 -3 21 -3 35 1 18 4 25 13 25 29
0 37 -42 69 -63 48z"/>
<path d="M1116 2630 c-21 -52 -21 -96 0 -104 23 -9 30 -1 49 48 21 55 17 90
-11 94 -17 2 -25 -6 -38 -38z"/>
<path d="M2797 1542 c-24 -59 -21 -76 3 -23 12 24 19 49 17 55 -2 5 -11 -9
-20 -32z"/>
<path d="M2763 1453 c-3 -10 -8 -21 -10 -25 -2 -5 0 -8 5 -8 5 0 12 11 14 25
6 29 0 33 -9 8z"/>
<path d="M2739 1384 c-5 -15 -8 -29 -5 -31 2 -2 8 10 14 26 13 38 5 41 -9 5z"/>
<path d="M2701 1274 c0 -11 3 -14 6 -6 3 7 2 16 -1 19 -3 4 -6 -2 -5 -13z"/>
<path d="M2751 1169 c-11 -28 -21 -57 -21 -63 1 -6 12 15 26 48 14 32 23 60
21 62 -2 3 -14 -19 -26 -47z"/>
<path d="M2672 1075 c-7 -14 -12 -31 -12 -38 1 -7 7 3 16 22 17 39 13 54 -4
16z"/>
<path d="M2637 983 c-4 -3 -7 -13 -7 -22 1 -13 3 -13 11 2 11 19 8 33 -4 20z"/>
<path d="M2610 909 c-7 -11 -10 -23 -7 -25 2 -2 9 7 15 21 14 30 7 33 -8 4z"/>
<path d="M3358 7110 c-75 -6 -119 -23 -87 -34 8 -3 102 -7 209 -9 229 -6 360
-24 527 -73 116 -34 153 -38 153 -15 0 41 -308 113 -550 130 -80 6 -152 10
-160 9 -8 0 -50 -4 -92 -8z"/>
<path d="M3393 6913 c-7 -2 -13 -13 -13 -22 0 -16 14 -19 118 -25 221 -13 384
-46 555 -112 165 -64 197 -71 197 -44 0 14 -93 59 -210 101 -200 71 -577 131
-647 102z"/>
</g>
</svg>
